<svg width="16" height="16" viewBox="0 0 16 16" fill="none" xmlns="http://www.w3.org/2000/svg">
  <path
    d="M12.502 7.11092H5.75255L8.6871 4.18889C8.85455 4.02164 8.94862 3.79481 8.94862 3.55829C8.94862 3.32178 8.85455 3.09495 8.6871 2.9277C8.51965 2.76046 8.29254 2.6665 8.05573 2.6665C7.81891 2.6665 7.5918 2.76046 7.42435 2.9277L2.97806 7.36849C2.8971 7.45295 2.83364 7.55256 2.79132 7.66158C2.70237 7.87781 2.70237 8.12035 2.79132 8.33658C2.83364 8.4456 2.8971 8.5452 2.97806 8.62967L7.42435 13.0705C7.50702 13.1537 7.60537 13.2198 7.71374 13.2649C7.8221 13.31 7.93833 13.3332 8.05573 13.3332C8.17312 13.3332 8.28935 13.31 8.39771 13.2649C8.50608 13.2198 8.60443 13.1537 8.6871 13.0705C8.77045 12.9879 8.8366 12.8897 8.88175 12.7814C8.9269 12.6732 8.95014 12.5571 8.95014 12.4399C8.95014 12.3226 8.9269 12.2065 8.88175 12.0983C8.8366 11.9901 8.77045 11.8918 8.6871 11.8093L5.75255 8.88724H12.502C12.7379 8.88724 12.9641 8.79366 13.1308 8.6271C13.2976 8.46054 13.3913 8.23463 13.3913 7.99908C13.3913 7.76353 13.2976 7.53762 13.1308 7.37106C12.9641 7.2045 12.7379 7.11092 12.502 7.11092Z"
    fill="#5a00cd" />
</svg>