<svg width="24" height="25" viewBox="0 0 24 25" fill="none" xmlns="http://www.w3.org/2000/svg">
  <path
    d="M13.6434 12.499L18.6552 7.49813C18.8747 7.27862 18.998 6.98091 18.998 6.67048C18.998 6.36005 18.8747 6.06233 18.6552 5.84282C18.4358 5.62332 18.1381 5.5 17.8277 5.5C17.5173 5.5 17.2196 5.62332 17.0002 5.84282L12 10.8554L6.99983 5.84282C6.78036 5.62332 6.48268 5.5 6.1723 5.5C5.86191 5.5 5.56424 5.62332 5.34476 5.84282C5.12529 6.06233 5.00199 6.36005 5.00199 6.67048C5.00199 6.98091 5.12529 7.27862 5.34476 7.49813L10.3566 12.499L5.34476 17.4999C5.23552 17.6083 5.14881 17.7372 5.08964 17.8792C5.03047 18.0213 5 18.1736 5 18.3275C5 18.4814 5.03047 18.6338 5.08964 18.7758C5.14881 18.9179 5.23552 19.0468 5.34476 19.1552C5.45312 19.2644 5.58203 19.3512 5.72406 19.4103C5.86609 19.4695 6.01843 19.5 6.1723 19.5C6.32616 19.5 6.47851 19.4695 6.62054 19.4103C6.76257 19.3512 6.89148 19.2644 6.99983 19.1552L12 14.1427L17.0002 19.1552C17.1085 19.2644 17.2374 19.3512 17.3795 19.4103C17.5215 19.4695 17.6738 19.5 17.8277 19.5C17.9816 19.5 18.1339 19.4695 18.2759 19.4103C18.418 19.3512 18.5469 19.2644 18.6552 19.1552C18.7645 19.0468 18.8512 18.9179 18.9104 18.7758C18.9695 18.6338 19 18.4814 19 18.3275C19 18.1736 18.9695 18.0213 18.9104 17.8792C18.8512 17.7372 18.7645 17.6083 18.6552 17.4999L13.6434 12.499Z"
    fill="#3D3D5E" />
</svg>