<svg width="17" height="16" viewBox="0 0 17 16" fill="none" xmlns="http://www.w3.org/2000/svg">
  <g clip-path="url(#clip0_219_3834)">
    <path
      d="M11.0184 8C11.0184 8.66304 10.755 9.29893 10.2862 9.76777C9.81736 10.2366 9.18147 10.5 8.51843 10.5C7.85539 10.5 7.21951 10.2366 6.75067 9.76777C6.28182 9.29893 6.01843 8.66304 6.01843 8C6.01843 7.33696 6.28182 6.70107 6.75067 6.23223C7.21951 5.76339 7.85539 5.5 8.51843 5.5C9.18147 5.5 9.81736 5.76339 10.2862 6.23223C10.755 6.70107 11.0184 7.33696 11.0184 8Z"
      fill="#09041A" />
    <path
      d="M0.518433 8C0.518433 8 3.51843 2.5 8.51843 2.5C13.5184 2.5 16.5184 8 16.5184 8C16.5184 8 13.5184 13.5 8.51843 13.5C3.51843 13.5 0.518433 8 0.518433 8ZM8.51843 11.5C9.44669 11.5 10.3369 11.1313 10.9933 10.4749C11.6497 9.8185 12.0184 8.92826 12.0184 8C12.0184 7.07174 11.6497 6.1815 10.9933 5.52513C10.3369 4.86875 9.44669 4.5 8.51843 4.5C7.59017 4.5 6.69994 4.86875 6.04356 5.52513C5.38718 6.1815 5.01843 7.07174 5.01843 8C5.01843 8.92826 5.38718 9.8185 6.04356 10.4749C6.69994 11.1313 7.59017 11.5 8.51843 11.5Z"
      fill="#09041A" />
  </g>
  <defs>
    <clipPath id="clip0_219_3834">
      <rect width="16" height="16" fill="white" transform="translate(0.518433)" />
    </clipPath>
  </defs>
</svg>