<svg width="16" height="16" viewBox="0 0 16 16" fill="none" xmlns="http://www.w3.org/2000/svg">
  <path
    d="M12.736 3.97C12.8042 3.90037 12.8857 3.84505 12.9756 3.80729C13.0655 3.76952 13.162 3.75007 13.2595 3.75007C13.357 3.75007 13.4535 3.76952 13.5434 3.80729C13.6333 3.84505 13.7147 3.90037 13.783 3.97C14.069 4.259 14.073 4.726 13.793 5.02L7.87998 12.01C7.81285 12.0837 7.73138 12.143 7.64056 12.1841C7.54974 12.2253 7.45148 12.2475 7.35179 12.2493C7.2521 12.2512 7.15307 12.2327 7.06077 12.195C6.96847 12.1573 6.88483 12.1012 6.81498 12.03L3.21698 8.384C3.07822 8.24249 3.00049 8.0522 3.00049 7.854C3.00049 7.65581 3.07822 7.46552 3.21698 7.324C3.28523 7.25437 3.36668 7.19905 3.45657 7.16129C3.54646 7.12352 3.64298 7.10407 3.74048 7.10407C3.83798 7.10407 3.9345 7.12352 4.02439 7.16129C4.11428 7.19905 4.19573 7.25437 4.26398 7.324L7.31598 10.417L12.716 3.992C12.7222 3.98427 12.7289 3.97693 12.736 3.97Z"
    fill="#22C55E" />
</svg>