<svg width="75" height="75" viewBox="0 0 75 75" fill="none" xmlns="http://www.w3.org/2000/svg">
  <rect width="75" height="75" rx="37.5" fill="#D9D9D9" />
  <g clip-path="url(#clip0_2256_354660)">
    <path
      d="M35.3438 27.4375C34.7719 27.4375 34.2234 27.6647 33.8191 28.0691C33.4147 28.4734 33.1875 29.0219 33.1875 29.5938V30.3125H28.1562C27.5844 30.3125 27.0359 30.5397 26.6316 30.9441C26.2272 31.3484 26 31.8969 26 32.4688V43.9688C26 44.5406 26.2272 45.0891 26.6316 45.4935C27.0359 45.8978 27.5844 46.125 28.1562 46.125H46.8438C47.4156 46.125 47.9641 45.8978 48.3685 45.4935C48.7728 45.0891 49 44.5406 49 43.9688V32.4688C49 31.8969 48.7728 31.3484 48.3685 30.9441C47.9641 30.5397 47.4156 30.3125 46.8438 30.3125H41.8125V29.5938C41.8125 29.0219 41.5853 28.4734 41.1809 28.0691C40.7766 27.6647 40.2281 27.4375 39.6562 27.4375H35.3438ZM35.3438 28.875H39.6562C39.8469 28.875 40.0297 28.9507 40.1645 29.0855C40.2993 29.2203 40.375 29.4031 40.375 29.5938V30.3125H34.625V29.5938C34.625 29.4031 34.7007 29.2203 34.8355 29.0855C34.9703 28.9507 35.1531 28.875 35.3438 28.875ZM38.0549 38.8139L47.5625 36.2796V43.9688C47.5625 44.1594 47.4868 44.3422 47.352 44.477C47.2172 44.6118 47.0344 44.6875 46.8438 44.6875H28.1562C27.9656 44.6875 27.7828 44.6118 27.648 44.477C27.5132 44.3422 27.4375 44.1594 27.4375 43.9688V36.2781L36.9451 38.8139C37.3087 38.9107 37.6913 38.9107 38.0549 38.8139ZM28.1562 31.75H46.8438C47.0344 31.75 47.2172 31.8257 47.352 31.9605C47.4868 32.0953 47.5625 32.2781 47.5625 32.4688V34.7918L37.6854 37.4253C37.5639 37.4577 37.4361 37.4577 37.3146 37.4253L27.4375 34.7918V32.4688C27.4375 32.2781 27.5132 32.0953 27.648 31.9605C27.7828 31.8257 27.9656 31.75 28.1562 31.75Z"
      fill="white" />
  </g>
  <defs>
    <clipPath id="clip0_2256_354660">
      <rect width="23" height="23" fill="white" transform="translate(26 26)" />
    </clipPath>
  </defs>
</svg>