<svg width="552" height="268" viewBox="0 0 552 268" fill="none" xmlns="http://www.w3.org/2000/svg">
  <rect x="0.5" y="0.5" width="551" height="267" rx="7.5" stroke="#E5E7EB" stroke-linecap="round"
    stroke-dasharray="5 5" />
  <path
    d="M285.849 101.062C286.329 101.062 286.804 100.968 287.248 100.784C287.691 100.6 288.094 100.331 288.434 99.9916C288.774 99.6521 289.043 99.249 289.227 98.8054C289.41 98.3618 289.505 97.8864 289.505 97.4062C289.505 96.9261 289.41 96.4507 289.227 96.0071C289.043 95.5635 288.774 95.1604 288.434 94.8209C288.094 94.4814 287.691 94.2121 287.248 94.0283C286.804 93.8446 286.329 93.75 285.849 93.75C284.879 93.75 283.949 94.1352 283.263 94.8209C282.578 95.5066 282.192 96.4366 282.192 97.4062C282.192 98.3759 282.578 99.3059 283.263 99.9916C283.949 100.677 284.879 101.062 285.849 101.062Z"
    fill="#C3C1CC" />
  <path
    d="M304.125 118.125C304.125 119.418 303.611 120.658 302.697 121.572C301.783 122.486 300.543 123 299.25 123H279.75C278.457 123 277.217 122.486 276.303 121.572C275.389 120.658 274.875 119.418 274.875 118.125V88.875C274.875 87.5821 275.389 86.3421 276.303 85.4279C277.217 84.5136 278.457 84 279.75 84H293.156L304.125 94.9688V118.125ZM279.75 86.4375C279.104 86.4375 278.484 86.6943 278.026 87.1514C277.569 87.6085 277.312 88.2285 277.312 88.875V113.25L282.734 107.829C282.926 107.637 283.176 107.515 283.446 107.482C283.715 107.449 283.988 107.507 284.22 107.646L289.5 110.812L294.758 103.451C294.861 103.307 294.994 103.188 295.147 103.1C295.301 103.013 295.472 102.96 295.648 102.946C295.825 102.931 296.002 102.955 296.168 103.016C296.334 103.076 296.485 103.173 296.61 103.298L301.688 108.375V94.9688H296.812C295.843 94.9688 294.913 94.5835 294.227 93.8979C293.541 93.2122 293.156 92.2822 293.156 91.3125V86.4375H279.75Z"
    fill="#C3C1CC" />
  <path
    d="M153.408 147H149.463V136.035H153.303C154.383 136.035 155.333 136.27 156.153 136.74C156.973 137.2 157.613 137.845 158.073 138.675C158.543 139.495 158.778 140.45 158.778 141.54C158.778 142.61 158.548 143.56 158.088 144.39C157.638 145.21 157.008 145.85 156.198 146.31C155.398 146.77 154.468 147 153.408 147ZM151.383 136.92V146.13L150.468 145.23H153.228C153.958 145.23 154.588 145.08 155.118 144.78C155.648 144.48 156.053 144.055 156.333 143.505C156.613 142.955 156.753 142.3 156.753 141.54C156.753 140.76 156.608 140.095 156.318 139.545C156.028 138.985 155.613 138.555 155.073 138.255C154.533 137.955 153.883 137.805 153.123 137.805H150.468L151.383 136.92ZM165.022 139.56V141.255H164.347C163.677 141.255 163.152 141.435 162.772 141.795C162.392 142.145 162.202 142.68 162.202 143.4V147H160.372V139.605H162.097L162.247 141.135H162.067C162.167 140.645 162.402 140.245 162.772 139.935C163.142 139.625 163.622 139.47 164.212 139.47C164.342 139.47 164.472 139.475 164.602 139.485C164.732 139.495 164.872 139.52 165.022 139.56ZM165.652 143.28C165.652 142.51 165.822 141.835 166.162 141.255C166.502 140.665 166.972 140.205 167.572 139.875C168.172 139.545 168.852 139.38 169.612 139.38C170.382 139.38 171.062 139.545 171.652 139.875C172.252 140.205 172.722 140.665 173.062 141.255C173.402 141.835 173.572 142.51 173.572 143.28C173.572 144.05 173.402 144.73 173.062 145.32C172.722 145.9 172.252 146.355 171.652 146.685C171.062 147.015 170.382 147.18 169.612 147.18C168.852 147.18 168.172 147.015 167.572 146.685C166.972 146.355 166.502 145.9 166.162 145.32C165.822 144.73 165.652 144.05 165.652 143.28ZM167.482 143.28C167.482 143.73 167.572 144.125 167.752 144.465C167.942 144.805 168.192 145.07 168.502 145.26C168.822 145.45 169.192 145.545 169.612 145.545C170.032 145.545 170.402 145.45 170.722 145.26C171.042 145.07 171.292 144.805 171.472 144.465C171.652 144.125 171.742 143.73 171.742 143.28C171.742 142.82 171.652 142.425 171.472 142.095C171.292 141.755 171.042 141.49 170.722 141.3C170.402 141.11 170.032 141.015 169.612 141.015C169.192 141.015 168.822 141.11 168.502 141.3C168.192 141.49 167.942 141.755 167.752 142.095C167.572 142.425 167.482 142.82 167.482 143.28ZM175.097 150.435V139.59H176.792L176.912 140.715C177.132 140.285 177.472 139.955 177.932 139.725C178.392 139.485 178.897 139.365 179.447 139.365C180.157 139.365 180.767 139.525 181.277 139.845C181.797 140.165 182.202 140.61 182.492 141.18C182.782 141.75 182.927 142.425 182.927 143.205C182.927 143.975 182.792 144.66 182.522 145.26C182.252 145.86 181.857 146.335 181.337 146.685C180.827 147.025 180.202 147.195 179.462 147.195C178.912 147.195 178.407 147.09 177.947 146.88C177.497 146.67 177.157 146.38 176.927 146.01V150.435H175.097ZM176.942 143.295C176.942 143.735 177.027 144.125 177.197 144.465C177.367 144.805 177.607 145.075 177.917 145.275C178.237 145.465 178.607 145.56 179.027 145.56C179.457 145.56 179.827 145.465 180.137 145.275C180.447 145.075 180.682 144.805 180.842 144.465C181.002 144.125 181.082 143.735 181.082 143.295C181.082 142.855 181.002 142.465 180.842 142.125C180.682 141.785 180.447 141.52 180.137 141.33C179.827 141.13 179.457 141.03 179.027 141.03C178.607 141.03 178.237 141.125 177.917 141.315C177.607 141.505 177.367 141.77 177.197 142.11C177.027 142.45 176.942 142.845 176.942 143.295ZM189.672 139.59L192.087 146.43L191.097 148.305L187.737 139.59H189.672ZM187.932 150.435V148.92H189.027C189.267 148.92 189.477 148.89 189.657 148.83C189.837 148.78 189.997 148.68 190.137 148.53C190.287 148.38 190.412 148.16 190.512 147.87L193.587 139.59H195.477L191.847 148.65C191.577 149.33 191.237 149.825 190.827 150.135C190.417 150.445 189.907 150.6 189.297 150.6C189.037 150.6 188.792 150.585 188.562 150.555C188.342 150.535 188.132 150.495 187.932 150.435ZM195.82 143.28C195.82 142.51 195.99 141.835 196.33 141.255C196.67 140.665 197.14 140.205 197.74 139.875C198.34 139.545 199.02 139.38 199.78 139.38C200.55 139.38 201.23 139.545 201.82 139.875C202.42 140.205 202.89 140.665 203.23 141.255C203.57 141.835 203.74 142.51 203.74 143.28C203.74 144.05 203.57 144.73 203.23 145.32C202.89 145.9 202.42 146.355 201.82 146.685C201.23 147.015 200.55 147.18 199.78 147.18C199.02 147.18 198.34 147.015 197.74 146.685C197.14 146.355 196.67 145.9 196.33 145.32C195.99 144.73 195.82 144.05 195.82 143.28ZM197.65 143.28C197.65 143.73 197.74 144.125 197.92 144.465C198.11 144.805 198.36 145.07 198.67 145.26C198.99 145.45 199.36 145.545 199.78 145.545C200.2 145.545 200.57 145.45 200.89 145.26C201.21 145.07 201.46 144.805 201.64 144.465C201.82 144.125 201.91 143.73 201.91 143.28C201.91 142.82 201.82 142.425 201.64 142.095C201.46 141.755 201.21 141.49 200.89 141.3C200.57 141.11 200.2 141.015 199.78 141.015C199.36 141.015 198.99 141.11 198.67 141.3C198.36 141.49 198.11 141.755 197.92 142.095C197.74 142.425 197.65 142.82 197.65 143.28ZM210.114 139.59H211.944V147H210.249L210.114 146.01C209.894 146.36 209.564 146.645 209.124 146.865C208.684 147.085 208.214 147.195 207.714 147.195C206.864 147.195 206.199 146.925 205.719 146.385C205.239 145.845 204.999 145.125 204.999 144.225V139.59H206.829V143.58C206.829 144.28 206.964 144.785 207.234 145.095C207.504 145.405 207.894 145.56 208.404 145.56C208.984 145.56 209.414 145.39 209.694 145.05C209.974 144.7 210.114 144.175 210.114 143.475V139.59ZM218.56 139.56V141.255H217.885C217.215 141.255 216.69 141.435 216.31 141.795C215.93 142.145 215.74 142.68 215.74 143.4V147H213.91V139.605H215.635L215.785 141.135H215.605C215.705 140.645 215.94 140.245 216.31 139.935C216.68 139.625 217.16 139.47 217.75 139.47C217.88 139.47 218.01 139.475 218.14 139.485C218.27 139.495 218.41 139.52 218.56 139.56ZM223.991 147V139.59H225.821V147H223.991ZM224.891 138.105C224.581 138.105 224.316 138 224.096 137.79C223.886 137.57 223.781 137.305 223.781 136.995C223.781 136.685 223.886 136.425 224.096 136.215C224.316 136.005 224.581 135.9 224.891 135.9C225.201 135.9 225.461 136.005 225.671 136.215C225.891 136.425 226.001 136.685 226.001 136.995C226.001 137.305 225.891 137.57 225.671 137.79C225.461 138 225.201 138.105 224.891 138.105ZM229.617 147H227.787V139.59H229.467L229.692 140.91L229.482 140.73C229.632 140.37 229.907 140.055 230.307 139.785C230.707 139.505 231.207 139.365 231.807 139.365C232.457 139.365 232.987 139.535 233.397 139.875C233.817 140.215 234.107 140.665 234.267 141.225H233.967C234.077 140.665 234.357 140.215 234.807 139.875C235.267 139.535 235.822 139.365 236.472 139.365C237.372 139.365 238.062 139.62 238.542 140.13C239.022 140.63 239.262 141.305 239.262 142.155V147H237.447V142.635C237.447 142.105 237.312 141.705 237.042 141.435C236.782 141.155 236.432 141.015 235.992 141.015C235.712 141.015 235.452 141.08 235.212 141.21C234.982 141.34 234.797 141.535 234.657 141.795C234.517 142.055 234.447 142.39 234.447 142.8V147H232.617V142.62C232.617 142.1 232.487 141.705 232.227 141.435C231.967 141.165 231.622 141.03 231.192 141.03C230.902 141.03 230.637 141.095 230.397 141.225C230.157 141.345 229.967 141.54 229.827 141.81C229.687 142.07 229.617 142.4 229.617 142.8V147ZM243.338 147.195C242.558 147.195 241.938 146.985 241.478 146.565C241.028 146.135 240.803 145.575 240.803 144.885C240.803 144.205 241.038 143.665 241.508 143.265C241.988 142.855 242.668 142.615 243.548 142.545L245.768 142.365V142.2C245.768 141.86 245.703 141.59 245.573 141.39C245.453 141.18 245.278 141.03 245.048 140.94C244.818 140.84 244.548 140.79 244.238 140.79C243.698 140.79 243.283 140.9 242.993 141.12C242.703 141.33 242.558 141.63 242.558 142.02H240.998C240.998 141.48 241.133 141.015 241.403 140.625C241.683 140.225 242.073 139.915 242.573 139.695C243.083 139.475 243.668 139.365 244.328 139.365C244.998 139.365 245.573 139.485 246.053 139.725C246.533 139.955 246.903 140.305 247.163 140.775C247.423 141.235 247.553 141.81 247.553 142.5V147H245.948L245.813 145.905C245.653 146.285 245.343 146.595 244.883 146.835C244.433 147.075 243.918 147.195 243.338 147.195ZM243.923 145.815C244.493 145.815 244.943 145.655 245.273 145.335C245.613 145.015 245.783 144.57 245.783 144V143.61L244.238 143.73C243.668 143.78 243.263 143.9 243.023 144.09C242.783 144.27 242.663 144.51 242.663 144.81C242.663 145.14 242.773 145.39 242.993 145.56C243.213 145.73 243.523 145.815 243.923 145.815ZM249.006 143.13C249.006 142.41 249.151 141.77 249.441 141.21C249.741 140.64 250.156 140.19 250.686 139.86C251.216 139.53 251.831 139.365 252.531 139.365C253.161 139.365 253.701 139.505 254.151 139.785C254.601 140.055 254.916 140.435 255.096 140.925L254.901 141.09L255.051 139.59H256.746V146.625C256.746 147.445 256.586 148.155 256.266 148.755C255.956 149.365 255.511 149.83 254.931 150.15C254.361 150.48 253.671 150.645 252.861 150.645C251.801 150.645 250.931 150.36 250.251 149.79C249.571 149.22 249.171 148.44 249.051 147.45H250.881C250.941 147.93 251.141 148.305 251.481 148.575C251.831 148.845 252.291 148.98 252.861 148.98C253.491 148.98 253.991 148.795 254.361 148.425C254.741 148.065 254.931 147.575 254.931 146.955V145.11L255.141 145.305C254.961 145.775 254.631 146.15 254.151 146.43C253.671 146.71 253.116 146.85 252.486 146.85C251.786 146.85 251.176 146.69 250.656 146.37C250.136 146.05 249.731 145.61 249.441 145.05C249.151 144.49 249.006 143.85 249.006 143.13ZM250.851 143.085C250.851 143.505 250.931 143.88 251.091 144.21C251.261 144.53 251.496 144.785 251.796 144.975C252.096 145.165 252.446 145.26 252.846 145.26C253.266 145.26 253.626 145.17 253.926 144.99C254.236 144.8 254.471 144.545 254.631 144.225C254.801 143.895 254.886 143.515 254.886 143.085C254.886 142.655 254.806 142.285 254.646 141.975C254.486 141.655 254.251 141.405 253.941 141.225C253.641 141.045 253.276 140.955 252.846 140.955C252.436 140.955 252.081 141.05 251.781 141.24C251.481 141.42 251.251 141.67 251.091 141.99C250.931 142.31 250.851 142.675 250.851 143.085ZM262.03 147.195C261.3 147.195 260.65 147.03 260.08 146.7C259.52 146.36 259.08 145.9 258.76 145.32C258.44 144.73 258.28 144.055 258.28 143.295C258.28 142.525 258.435 141.845 258.745 141.255C259.055 140.665 259.49 140.205 260.05 139.875C260.61 139.535 261.25 139.365 261.97 139.365C262.72 139.365 263.365 139.525 263.905 139.845C264.445 140.155 264.86 140.59 265.15 141.15C265.45 141.71 265.6 142.38 265.6 143.16V143.715L259.24 143.73L259.27 142.56H263.785C263.785 142.05 263.62 141.64 263.29 141.33C262.97 141.02 262.535 140.865 261.985 140.865C261.555 140.865 261.19 140.955 260.89 141.135C260.6 141.315 260.38 141.585 260.23 141.945C260.08 142.305 260.005 142.745 260.005 143.265C260.005 144.065 260.175 144.67 260.515 145.08C260.865 145.49 261.38 145.695 262.06 145.695C262.56 145.695 262.97 145.6 263.29 145.41C263.62 145.22 263.835 144.95 263.935 144.6H265.63C265.47 145.41 265.07 146.045 264.43 146.505C263.8 146.965 263 147.195 262.03 147.195ZM273.088 147H271.258V135.84H273.103V140.55C273.333 140.19 273.653 139.905 274.063 139.695C274.483 139.475 274.963 139.365 275.503 139.365C276.413 139.365 277.103 139.64 277.573 140.19C278.053 140.74 278.293 141.49 278.293 142.44V147H276.463V142.875C276.463 142.455 276.398 142.11 276.268 141.84C276.138 141.57 275.958 141.37 275.728 141.24C275.498 141.1 275.228 141.03 274.918 141.03C274.538 141.03 274.208 141.115 273.928 141.285C273.658 141.445 273.448 141.67 273.298 141.96C273.158 142.25 273.088 142.58 273.088 142.95V147ZM283.481 147.195C282.751 147.195 282.101 147.03 281.531 146.7C280.971 146.36 280.531 145.9 280.211 145.32C279.891 144.73 279.731 144.055 279.731 143.295C279.731 142.525 279.886 141.845 280.196 141.255C280.506 140.665 280.941 140.205 281.501 139.875C282.061 139.535 282.701 139.365 283.421 139.365C284.171 139.365 284.816 139.525 285.356 139.845C285.896 140.155 286.311 140.59 286.601 141.15C286.901 141.71 287.051 142.38 287.051 143.16V143.715L280.691 143.73L280.721 142.56H285.236C285.236 142.05 285.071 141.64 284.741 141.33C284.421 141.02 283.986 140.865 283.436 140.865C283.006 140.865 282.641 140.955 282.341 141.135C282.051 141.315 281.831 141.585 281.681 141.945C281.531 142.305 281.456 142.745 281.456 143.265C281.456 144.065 281.626 144.67 281.966 145.08C282.316 145.49 282.831 145.695 283.511 145.695C284.011 145.695 284.421 145.6 284.741 145.41C285.071 145.22 285.286 144.95 285.386 144.6H287.081C286.921 145.41 286.521 146.045 285.881 146.505C285.251 146.965 284.451 147.195 283.481 147.195ZM293.24 139.56V141.255H292.565C291.895 141.255 291.37 141.435 290.99 141.795C290.61 142.145 290.42 142.68 290.42 143.4V147H288.59V139.605H290.315L290.465 141.135H290.285C290.385 140.645 290.62 140.245 290.99 139.935C291.36 139.625 291.84 139.47 292.43 139.47C292.56 139.47 292.69 139.475 292.82 139.485C292.95 139.495 293.09 139.52 293.24 139.56ZM297.62 147.195C296.89 147.195 296.24 147.03 295.67 146.7C295.11 146.36 294.67 145.9 294.35 145.32C294.03 144.73 293.87 144.055 293.87 143.295C293.87 142.525 294.025 141.845 294.335 141.255C294.645 140.665 295.08 140.205 295.64 139.875C296.2 139.535 296.84 139.365 297.56 139.365C298.31 139.365 298.955 139.525 299.495 139.845C300.035 140.155 300.45 140.59 300.74 141.15C301.04 141.71 301.19 142.38 301.19 143.16V143.715L294.83 143.73L294.86 142.56H299.375C299.375 142.05 299.21 141.64 298.88 141.33C298.56 141.02 298.125 140.865 297.575 140.865C297.145 140.865 296.78 140.955 296.48 141.135C296.19 141.315 295.97 141.585 295.82 141.945C295.67 142.305 295.595 142.745 295.595 143.265C295.595 144.065 295.765 144.67 296.105 145.08C296.455 145.49 296.97 145.695 297.65 145.695C298.15 145.695 298.56 145.6 298.88 145.41C299.21 145.22 299.425 144.95 299.525 144.6H301.22C301.06 145.41 300.66 146.045 300.02 146.505C299.39 146.965 298.59 147.195 297.62 147.195ZM306.412 143.28C306.412 142.51 306.582 141.835 306.922 141.255C307.262 140.665 307.732 140.205 308.332 139.875C308.932 139.545 309.612 139.38 310.372 139.38C311.142 139.38 311.822 139.545 312.412 139.875C313.012 140.205 313.482 140.665 313.822 141.255C314.162 141.835 314.332 142.51 314.332 143.28C314.332 144.05 314.162 144.73 313.822 145.32C313.482 145.9 313.012 146.355 312.412 146.685C311.822 147.015 311.142 147.18 310.372 147.18C309.612 147.18 308.932 147.015 308.332 146.685C307.732 146.355 307.262 145.9 306.922 145.32C306.582 144.73 306.412 144.05 306.412 143.28ZM308.242 143.28C308.242 143.73 308.332 144.125 308.512 144.465C308.702 144.805 308.952 145.07 309.262 145.26C309.582 145.45 309.952 145.545 310.372 145.545C310.792 145.545 311.162 145.45 311.482 145.26C311.802 145.07 312.052 144.805 312.232 144.465C312.412 144.125 312.502 143.73 312.502 143.28C312.502 142.82 312.412 142.425 312.232 142.095C312.052 141.755 311.802 141.49 311.482 141.3C311.162 141.11 310.792 141.015 310.372 141.015C309.952 141.015 309.582 141.11 309.262 141.3C308.952 141.49 308.702 141.755 308.512 142.095C308.332 142.425 308.242 142.82 308.242 143.28ZM320.508 139.56V141.255H319.833C319.163 141.255 318.638 141.435 318.258 141.795C317.878 142.145 317.688 142.68 317.688 143.4V147H315.858V139.605H317.583L317.733 141.135H317.553C317.653 140.645 317.888 140.245 318.258 139.935C318.628 139.625 319.108 139.47 319.698 139.47C319.828 139.47 319.958 139.475 320.088 139.485C320.218 139.495 320.358 139.52 320.508 139.56ZM325.505 143.28C325.505 142.52 325.66 141.845 325.97 141.255C326.29 140.665 326.725 140.205 327.275 139.875C327.835 139.535 328.48 139.365 329.21 139.365C330.22 139.365 331.045 139.63 331.685 140.16C332.335 140.68 332.71 141.385 332.81 142.275H330.98C330.87 141.855 330.665 141.54 330.365 141.33C330.075 141.11 329.71 141 329.27 141C328.89 141 328.55 141.095 328.25 141.285C327.96 141.465 327.735 141.725 327.575 142.065C327.415 142.405 327.335 142.81 327.335 143.28C327.335 143.75 327.41 144.155 327.56 144.495C327.71 144.835 327.925 145.1 328.205 145.29C328.495 145.47 328.835 145.56 329.225 145.56C329.685 145.56 330.065 145.45 330.365 145.23C330.675 145.01 330.88 144.695 330.98 144.285H332.825C332.745 144.865 332.54 145.375 332.21 145.815C331.89 146.245 331.475 146.585 330.965 146.835C330.455 147.075 329.875 147.195 329.225 147.195C328.475 147.195 327.82 147.035 327.26 146.715C326.7 146.385 326.265 145.93 325.955 145.35C325.655 144.76 325.505 144.07 325.505 143.28ZM336.107 147H334.292V135.84H336.107V147ZM338.101 147V139.59H339.931V147H338.101ZM339.001 138.105C338.691 138.105 338.426 138 338.206 137.79C337.996 137.57 337.891 137.305 337.891 136.995C337.891 136.685 337.996 136.425 338.206 136.215C338.426 136.005 338.691 135.9 339.001 135.9C339.311 135.9 339.571 136.005 339.781 136.215C340.001 136.425 340.111 136.685 340.111 136.995C340.111 137.305 340.001 137.57 339.781 137.79C339.571 138 339.311 138.105 339.001 138.105ZM341.462 143.28C341.462 142.52 341.617 141.845 341.927 141.255C342.247 140.665 342.682 140.205 343.232 139.875C343.792 139.535 344.437 139.365 345.167 139.365C346.177 139.365 347.002 139.63 347.642 140.16C348.292 140.68 348.667 141.385 348.767 142.275H346.937C346.827 141.855 346.622 141.54 346.322 141.33C346.032 141.11 345.667 141 345.227 141C344.847 141 344.507 141.095 344.207 141.285C343.917 141.465 343.692 141.725 343.532 142.065C343.372 142.405 343.292 142.81 343.292 143.28C343.292 143.75 343.367 144.155 343.517 144.495C343.667 144.835 343.882 145.1 344.162 145.29C344.452 145.47 344.792 145.56 345.182 145.56C345.642 145.56 346.022 145.45 346.322 145.23C346.632 145.01 346.837 144.695 346.937 144.285H348.782C348.702 144.865 348.497 145.375 348.167 145.815C347.847 146.245 347.432 146.585 346.922 146.835C346.412 147.075 345.832 147.195 345.182 147.195C344.432 147.195 343.777 147.035 343.217 146.715C342.657 146.385 342.222 145.93 341.912 145.35C341.612 144.76 341.462 144.07 341.462 143.28ZM352.064 147H350.249V135.84H352.064V142.695L354.944 139.59H357.239L354.419 142.53L357.179 147H355.079L353.144 143.88L352.064 145.005V147ZM361.748 139.59H366.428V141.12H361.748V139.59ZM365.003 147H363.173V137.28H365.003V147ZM367.148 143.28C367.148 142.51 367.318 141.835 367.658 141.255C367.998 140.665 368.468 140.205 369.068 139.875C369.668 139.545 370.348 139.38 371.108 139.38C371.878 139.38 372.558 139.545 373.148 139.875C373.748 140.205 374.218 140.665 374.558 141.255C374.898 141.835 375.068 142.51 375.068 143.28C375.068 144.05 374.898 144.73 374.558 145.32C374.218 145.9 373.748 146.355 373.148 146.685C372.558 147.015 371.878 147.18 371.108 147.18C370.348 147.18 369.668 147.015 369.068 146.685C368.468 146.355 367.998 145.9 367.658 145.32C367.318 144.73 367.148 144.05 367.148 143.28ZM368.978 143.28C368.978 143.73 369.068 144.125 369.248 144.465C369.438 144.805 369.688 145.07 369.998 145.26C370.318 145.45 370.688 145.545 371.108 145.545C371.528 145.545 371.898 145.45 372.218 145.26C372.538 145.07 372.788 144.805 372.968 144.465C373.148 144.125 373.238 143.73 373.238 143.28C373.238 142.82 373.148 142.425 372.968 142.095C372.788 141.755 372.538 141.49 372.218 141.3C371.898 141.11 371.528 141.015 371.108 141.015C370.688 141.015 370.318 141.11 369.998 141.3C369.688 141.49 369.438 141.755 369.248 142.095C369.068 142.425 368.978 142.82 368.978 143.28ZM382.406 147H380.711V135.84H382.541V140.67C382.781 140.25 383.131 139.93 383.591 139.71C384.051 139.48 384.566 139.365 385.136 139.365C385.846 139.365 386.451 139.535 386.951 139.875C387.461 140.205 387.851 140.67 388.121 141.27C388.401 141.87 388.541 142.565 388.541 143.355C388.541 144.105 388.396 144.77 388.106 145.35C387.816 145.93 387.406 146.385 386.876 146.715C386.346 147.035 385.726 147.195 385.016 147.195C384.466 147.195 383.966 147.075 383.516 146.835C383.076 146.595 382.746 146.265 382.526 145.845L382.406 147ZM382.556 143.265C382.556 143.705 382.641 144.1 382.811 144.45C382.981 144.79 383.221 145.055 383.531 145.245C383.851 145.425 384.221 145.515 384.641 145.515C385.071 145.515 385.441 145.42 385.751 145.23C386.061 145.04 386.296 144.775 386.456 144.435C386.616 144.095 386.696 143.705 386.696 143.265C386.696 142.825 386.616 142.435 386.456 142.095C386.296 141.755 386.061 141.49 385.751 141.3C385.441 141.1 385.071 141 384.641 141C384.221 141 383.851 141.1 383.531 141.3C383.221 141.49 382.981 141.755 382.811 142.095C382.641 142.425 382.556 142.815 382.556 143.265ZM394.723 139.56V141.255H394.048C393.378 141.255 392.853 141.435 392.473 141.795C392.093 142.145 391.903 142.68 391.903 143.4V147H390.073V139.605H391.798L391.948 141.135H391.768C391.868 140.645 392.103 140.245 392.473 139.935C392.843 139.625 393.323 139.47 393.913 139.47C394.043 139.47 394.173 139.475 394.303 139.485C394.433 139.495 394.573 139.52 394.723 139.56ZM395.353 143.28C395.353 142.51 395.523 141.835 395.863 141.255C396.203 140.665 396.673 140.205 397.273 139.875C397.873 139.545 398.553 139.38 399.313 139.38C400.083 139.38 400.763 139.545 401.353 139.875C401.953 140.205 402.423 140.665 402.763 141.255C403.103 141.835 403.273 142.51 403.273 143.28C403.273 144.05 403.103 144.73 402.763 145.32C402.423 145.9 401.953 146.355 401.353 146.685C400.763 147.015 400.083 147.18 399.313 147.18C398.553 147.18 397.873 147.015 397.273 146.685C396.673 146.355 396.203 145.9 395.863 145.32C395.523 144.73 395.353 144.05 395.353 143.28ZM397.183 143.28C397.183 143.73 397.273 144.125 397.453 144.465C397.643 144.805 397.893 145.07 398.203 145.26C398.523 145.45 398.893 145.545 399.313 145.545C399.733 145.545 400.103 145.45 400.423 145.26C400.743 145.07 400.993 144.805 401.173 144.465C401.353 144.125 401.443 143.73 401.443 143.28C401.443 142.82 401.353 142.425 401.173 142.095C400.993 141.755 400.743 141.49 400.423 141.3C400.103 141.11 399.733 141.015 399.313 141.015C398.893 141.015 398.523 141.11 398.203 141.3C397.893 141.49 397.643 141.755 397.453 142.095C397.273 142.425 397.183 142.82 397.183 143.28ZM406.082 147L403.682 139.59H405.587L406.562 142.77C406.642 143.06 406.722 143.365 406.802 143.685C406.882 144.005 406.952 144.34 407.012 144.69C407.062 144.45 407.107 144.23 407.147 144.03C407.197 143.83 407.252 143.635 407.312 143.445C407.372 143.245 407.442 143.02 407.522 142.77L408.542 139.59H410.402L411.392 142.77C411.412 142.84 411.442 142.96 411.482 143.13C411.532 143.29 411.582 143.465 411.632 143.655C411.682 143.845 411.727 144.035 411.767 144.225C411.817 144.405 411.852 144.56 411.872 144.69C411.912 144.5 411.962 144.285 412.022 144.045C412.082 143.805 412.142 143.575 412.202 143.355C412.272 143.125 412.327 142.93 412.367 142.77L413.357 139.59H415.292L412.727 147H411.017L409.997 143.79C409.847 143.3 409.727 142.885 409.637 142.545C409.547 142.195 409.487 141.925 409.457 141.735C409.427 141.915 409.372 142.155 409.292 142.455C409.212 142.755 409.077 143.21 408.887 143.82L407.867 147H406.082ZM415.759 144.75H417.499C417.509 145.07 417.629 145.325 417.859 145.515C418.089 145.705 418.409 145.8 418.819 145.8C419.259 145.8 419.589 145.72 419.809 145.56C420.039 145.4 420.154 145.185 420.154 144.915C420.154 144.735 420.094 144.575 419.974 144.435C419.854 144.295 419.629 144.19 419.299 144.12L417.964 143.805C417.294 143.655 416.794 143.415 416.464 143.085C416.144 142.745 415.984 142.28 415.984 141.69C415.984 141.21 416.109 140.795 416.359 140.445C416.619 140.095 416.969 139.83 417.409 139.65C417.849 139.46 418.354 139.365 418.924 139.365C419.474 139.365 419.959 139.465 420.379 139.665C420.799 139.865 421.124 140.145 421.354 140.505C421.594 140.865 421.719 141.285 421.729 141.765H419.989C419.989 141.445 419.889 141.195 419.689 141.015C419.489 140.825 419.209 140.73 418.849 140.73C418.489 140.73 418.209 140.81 418.009 140.97C417.809 141.13 417.709 141.345 417.709 141.615C417.709 142.025 418.029 142.305 418.669 142.455L420.004 142.77C420.624 142.91 421.089 143.135 421.399 143.445C421.719 143.755 421.879 144.195 421.879 144.765C421.879 145.265 421.749 145.7 421.489 146.07C421.229 146.43 420.864 146.71 420.394 146.91C419.924 147.1 419.384 147.195 418.774 147.195C417.854 147.195 417.119 146.97 416.569 146.52C416.029 146.07 415.759 145.48 415.759 144.75ZM426.662 147.195C425.932 147.195 425.282 147.03 424.712 146.7C424.152 146.36 423.712 145.9 423.392 145.32C423.072 144.73 422.912 144.055 422.912 143.295C422.912 142.525 423.067 141.845 423.377 141.255C423.687 140.665 424.122 140.205 424.682 139.875C425.242 139.535 425.882 139.365 426.602 139.365C427.352 139.365 427.997 139.525 428.537 139.845C429.077 140.155 429.492 140.59 429.782 141.15C430.082 141.71 430.232 142.38 430.232 143.16V143.715L423.872 143.73L423.902 142.56H428.417C428.417 142.05 428.252 141.64 427.922 141.33C427.602 141.02 427.167 140.865 426.617 140.865C426.187 140.865 425.822 140.955 425.522 141.135C425.232 141.315 425.012 141.585 424.862 141.945C424.712 142.305 424.637 142.745 424.637 143.265C424.637 144.065 424.807 144.67 425.147 145.08C425.497 145.49 426.012 145.695 426.692 145.695C427.192 145.695 427.602 145.6 427.922 145.41C428.252 145.22 428.467 144.95 428.567 144.6H430.262C430.102 145.41 429.702 146.045 429.062 146.505C428.432 146.965 427.632 147.195 426.662 147.195Z"
    fill="#4D4566" />
  <path
    d="M167.843 165.664C167.843 165.168 167.967 164.732 168.215 164.356C168.463 163.98 168.811 163.688 169.259 163.48C169.715 163.272 170.239 163.168 170.831 163.168C171.383 163.168 171.863 163.268 172.271 163.468C172.687 163.66 173.011 163.936 173.243 164.296C173.483 164.656 173.619 165.088 173.651 165.592H172.463C172.431 165.16 172.271 164.824 171.983 164.584C171.695 164.344 171.307 164.224 170.819 164.224C170.275 164.224 169.839 164.352 169.511 164.608C169.183 164.856 169.019 165.196 169.019 165.628C169.019 165.98 169.119 166.264 169.319 166.48C169.519 166.688 169.823 166.84 170.231 166.936L171.659 167.272C172.371 167.432 172.903 167.708 173.255 168.1C173.615 168.484 173.795 168.98 173.795 169.588C173.795 170.108 173.667 170.56 173.411 170.944C173.163 171.328 172.807 171.624 172.343 171.832C171.887 172.04 171.351 172.144 170.735 172.144C170.151 172.144 169.635 172.048 169.187 171.856C168.747 171.656 168.399 171.376 168.143 171.016C167.895 170.648 167.755 170.22 167.723 169.732H168.923C168.931 170.148 169.099 170.48 169.427 170.728C169.755 170.968 170.191 171.088 170.735 171.088C171.311 171.088 171.767 170.96 172.103 170.704C172.447 170.448 172.619 170.108 172.619 169.684C172.619 169.34 172.523 169.06 172.331 168.844C172.139 168.628 171.835 168.472 171.419 168.376L169.991 168.052C169.287 167.892 168.751 167.612 168.383 167.212C168.023 166.804 167.843 166.288 167.843 165.664ZM179.197 166.132H180.313V172H179.305L179.185 171.112C179.017 171.416 178.753 171.664 178.393 171.856C178.033 172.048 177.637 172.144 177.205 172.144C176.525 172.144 175.997 171.932 175.621 171.508C175.253 171.076 175.069 170.5 175.069 169.78V166.132H176.197V169.408C176.197 170.032 176.321 170.48 176.569 170.752C176.825 171.016 177.169 171.148 177.601 171.148C178.121 171.148 178.517 170.988 178.789 170.668C179.061 170.34 179.197 169.86 179.197 169.228V166.132ZM182.009 174.628V166.132H183.029L183.113 167.188C183.305 166.78 183.589 166.476 183.965 166.276C184.349 166.068 184.773 165.964 185.237 165.964C185.797 165.964 186.281 166.096 186.689 166.36C187.097 166.616 187.409 166.976 187.625 167.44C187.849 167.896 187.961 168.424 187.961 169.024C187.961 169.624 187.853 170.16 187.637 170.632C187.429 171.104 187.121 171.476 186.713 171.748C186.313 172.02 185.821 172.156 185.237 172.156C184.765 172.156 184.345 172.06 183.977 171.868C183.609 171.676 183.329 171.4 183.137 171.04V174.628H182.009ZM183.149 169.072C183.149 169.464 183.221 169.82 183.365 170.14C183.517 170.452 183.729 170.696 184.001 170.872C184.281 171.048 184.613 171.136 184.997 171.136C185.381 171.136 185.709 171.048 185.981 170.872C186.253 170.688 186.461 170.44 186.605 170.128C186.757 169.816 186.833 169.464 186.833 169.072C186.833 168.664 186.757 168.304 186.605 167.992C186.461 167.68 186.253 167.436 185.981 167.26C185.709 167.084 185.381 166.996 184.997 166.996C184.613 166.996 184.281 167.084 184.001 167.26C183.729 167.436 183.517 167.68 183.365 167.992C183.221 168.304 183.149 168.664 183.149 169.072ZM189.265 174.628V166.132H190.285L190.369 167.188C190.561 166.78 190.845 166.476 191.221 166.276C191.605 166.068 192.029 165.964 192.493 165.964C193.053 165.964 193.537 166.096 193.945 166.36C194.353 166.616 194.665 166.976 194.881 167.44C195.105 167.896 195.217 168.424 195.217 169.024C195.217 169.624 195.109 170.16 194.893 170.632C194.685 171.104 194.377 171.476 193.969 171.748C193.569 172.02 193.077 172.156 192.493 172.156C192.021 172.156 191.601 172.06 191.233 171.868C190.865 171.676 190.585 171.4 190.393 171.04V174.628H189.265ZM190.405 169.072C190.405 169.464 190.477 169.82 190.621 170.14C190.773 170.452 190.985 170.696 191.257 170.872C191.537 171.048 191.869 171.136 192.253 171.136C192.637 171.136 192.965 171.048 193.237 170.872C193.509 170.688 193.717 170.44 193.861 170.128C194.013 169.816 194.089 169.464 194.089 169.072C194.089 168.664 194.013 168.304 193.861 167.992C193.717 167.68 193.509 167.436 193.237 167.26C192.965 167.084 192.637 166.996 192.253 166.996C191.869 166.996 191.537 167.084 191.257 167.26C190.985 167.436 190.773 167.68 190.621 167.992C190.477 168.304 190.405 168.664 190.405 169.072ZM196.136 169.06C196.136 168.46 196.268 167.928 196.532 167.464C196.796 167 197.156 166.636 197.612 166.372C198.076 166.108 198.604 165.976 199.196 165.976C199.788 165.976 200.312 166.108 200.768 166.372C201.224 166.636 201.584 167 201.848 167.464C202.112 167.928 202.244 168.46 202.244 169.06C202.244 169.66 202.112 170.192 201.848 170.656C201.584 171.12 201.224 171.484 200.768 171.748C200.312 172.012 199.788 172.144 199.196 172.144C198.604 172.144 198.076 172.012 197.612 171.748C197.156 171.484 196.796 171.12 196.532 170.656C196.268 170.192 196.136 169.66 196.136 169.06ZM197.276 169.06C197.276 169.468 197.356 169.828 197.516 170.14C197.684 170.452 197.912 170.696 198.2 170.872C198.488 171.048 198.82 171.136 199.196 171.136C199.572 171.136 199.904 171.048 200.192 170.872C200.48 170.696 200.704 170.452 200.864 170.14C201.032 169.828 201.116 169.468 201.116 169.06C201.116 168.644 201.032 168.284 200.864 167.98C200.704 167.668 200.48 167.424 200.192 167.248C199.904 167.072 199.572 166.984 199.196 166.984C198.82 166.984 198.488 167.072 198.2 167.248C197.912 167.424 197.684 167.668 197.516 167.98C197.356 168.284 197.276 168.644 197.276 169.06ZM206.913 166.084V167.116H206.409C205.873 167.116 205.449 167.272 205.137 167.584C204.833 167.888 204.681 168.324 204.681 168.892V172H203.553V166.144H204.609L204.705 167.32H204.597C204.677 166.936 204.869 166.624 205.173 166.384C205.477 166.136 205.857 166.012 206.313 166.012C206.417 166.012 206.513 166.02 206.601 166.036C206.697 166.044 206.801 166.06 206.913 166.084ZM207.641 166.132H211.073V167.08H207.641V166.132ZM209.921 172H208.793V164.296H209.921V172ZM211.665 170.296H212.745C212.745 170.592 212.853 170.828 213.069 171.004C213.285 171.172 213.577 171.256 213.945 171.256C214.345 171.256 214.653 171.18 214.869 171.028C215.085 170.868 215.193 170.656 215.193 170.392C215.193 170.2 215.133 170.04 215.013 169.912C214.901 169.784 214.693 169.68 214.389 169.6L213.357 169.36C212.837 169.232 212.449 169.036 212.193 168.772C211.945 168.508 211.821 168.16 211.821 167.728C211.821 167.368 211.913 167.056 212.097 166.792C212.289 166.528 212.549 166.324 212.877 166.18C213.213 166.036 213.597 165.964 214.029 165.964C214.461 165.964 214.833 166.04 215.145 166.192C215.465 166.344 215.713 166.556 215.889 166.828C216.073 167.1 216.169 167.424 216.177 167.8H215.097C215.089 167.496 214.989 167.26 214.797 167.092C214.605 166.924 214.337 166.84 213.993 166.84C213.641 166.84 213.369 166.916 213.177 167.068C212.985 167.22 212.889 167.428 212.889 167.692C212.889 168.084 213.177 168.352 213.753 168.496L214.785 168.748C215.281 168.86 215.653 169.044 215.901 169.3C216.149 169.548 216.273 169.888 216.273 170.32C216.273 170.688 216.173 171.012 215.973 171.292C215.773 171.564 215.497 171.776 215.145 171.928C214.801 172.072 214.393 172.144 213.921 172.144C213.233 172.144 212.685 171.976 212.277 171.64C211.869 171.304 211.665 170.856 211.665 170.296ZM220.35 169.588V169.156H221.49V169.588C221.49 170.012 221.606 170.364 221.838 170.644C222.078 170.916 222.438 171.052 222.918 171.052C223.406 171.052 223.762 170.916 223.986 170.644C224.218 170.364 224.334 170 224.334 169.552V163.324H225.51V169.6C225.51 170.12 225.402 170.572 225.186 170.956C224.97 171.332 224.666 171.624 224.274 171.832C223.89 172.04 223.438 172.144 222.918 172.144C222.366 172.144 221.898 172.036 221.514 171.82C221.13 171.604 220.838 171.304 220.638 170.92C220.446 170.528 220.35 170.084 220.35 169.588ZM228.705 163.324V172H227.529V163.324H228.705ZM230.901 168.904H228.441V167.848H230.649C231.233 167.848 231.681 167.692 231.993 167.38C232.305 167.06 232.461 166.632 232.461 166.096C232.461 165.552 232.305 165.132 231.993 164.836C231.681 164.532 231.249 164.38 230.697 164.38H228.177V163.324H230.901C231.469 163.324 231.961 163.44 232.377 163.672C232.793 163.904 233.117 164.228 233.349 164.644C233.581 165.06 233.697 165.548 233.697 166.108C233.697 166.644 233.581 167.124 233.349 167.548C233.117 167.972 232.793 168.304 232.377 168.544C231.961 168.784 231.469 168.904 230.901 168.904ZM238.809 164.284C238.185 164.284 237.649 164.428 237.201 164.716C236.753 165.004 236.409 165.404 236.169 165.916C235.929 166.428 235.809 167.028 235.809 167.716C235.809 168.412 235.933 169.008 236.181 169.504C236.437 170 236.793 170.38 237.249 170.644C237.705 170.9 238.229 171.028 238.821 171.028C239.197 171.028 239.545 170.98 239.865 170.884C240.185 170.788 240.465 170.64 240.705 170.44C240.945 170.232 241.133 169.968 241.269 169.648C241.413 169.328 241.485 168.952 241.485 168.52V167.704L242.037 168.268H238.581V167.224H242.589V172.012H241.605L241.485 170.404L241.641 170.596C241.513 170.884 241.309 171.144 241.029 171.376C240.749 171.608 240.413 171.796 240.021 171.94C239.629 172.076 239.197 172.144 238.725 172.144C237.909 172.144 237.189 171.96 236.565 171.592C235.941 171.216 235.453 170.696 235.101 170.032C234.749 169.368 234.573 168.588 234.573 167.692C234.573 166.812 234.749 166.032 235.101 165.352C235.461 164.672 235.961 164.14 236.601 163.756C237.241 163.372 237.985 163.18 238.833 163.18C239.465 163.18 240.041 163.296 240.561 163.528C241.081 163.752 241.509 164.072 241.845 164.488C242.189 164.896 242.405 165.38 242.493 165.94H241.245C241.085 165.388 240.781 164.976 240.333 164.704C239.893 164.424 239.385 164.284 238.809 164.284ZM249.19 172.144C248.566 172.144 248.074 171.98 247.714 171.652C247.362 171.324 247.186 170.896 247.186 170.368C247.186 169.832 247.378 169.404 247.762 169.084C248.146 168.756 248.682 168.564 249.37 168.508L251.218 168.364V168.196C251.218 167.868 251.158 167.608 251.038 167.416C250.918 167.216 250.754 167.076 250.546 166.996C250.338 166.908 250.102 166.864 249.838 166.864C249.366 166.864 248.998 166.964 248.734 167.164C248.478 167.356 248.35 167.632 248.35 167.992H247.366C247.366 167.584 247.47 167.228 247.678 166.924C247.886 166.62 248.178 166.384 248.554 166.216C248.938 166.048 249.382 165.964 249.886 165.964C250.374 165.964 250.798 166.052 251.158 166.228C251.526 166.396 251.81 166.656 252.01 167.008C252.218 167.352 252.322 167.788 252.322 168.316V172H251.362L251.242 171.052C251.09 171.388 250.826 171.656 250.45 171.856C250.082 172.048 249.662 172.144 249.19 172.144ZM249.514 171.268C250.05 171.268 250.47 171.108 250.774 170.788C251.078 170.46 251.23 170.02 251.23 169.468V169.156L249.73 169.276C249.234 169.324 248.874 169.44 248.65 169.624C248.434 169.808 248.326 170.044 248.326 170.332C248.326 170.644 248.43 170.88 248.638 171.04C248.854 171.192 249.146 171.268 249.514 171.268ZM255.072 172H253.944V166.132H254.964L255.084 167.032C255.268 166.696 255.532 166.436 255.876 166.252C256.228 166.06 256.612 165.964 257.028 165.964C257.796 165.964 258.364 166.184 258.732 166.624C259.1 167.064 259.284 167.66 259.284 168.412V172H258.156V168.664C258.156 168.072 258.028 167.648 257.772 167.392C257.516 167.128 257.172 166.996 256.74 166.996C256.212 166.996 255.8 167.168 255.504 167.512C255.216 167.856 255.072 168.316 255.072 168.892V172ZM263.259 172.144C262.691 172.144 262.203 172.016 261.795 171.76C261.387 171.496 261.071 171.132 260.847 170.668C260.631 170.204 260.523 169.676 260.523 169.084C260.523 168.484 260.635 167.952 260.859 167.488C261.083 167.016 261.403 166.644 261.819 166.372C262.235 166.1 262.731 165.964 263.307 165.964C263.763 165.964 264.167 166.06 264.519 166.252C264.879 166.436 265.159 166.712 265.359 167.08V163.168H266.475V172H265.467L265.371 170.932C265.179 171.324 264.895 171.624 264.519 171.832C264.151 172.04 263.731 172.144 263.259 172.144ZM263.487 171.124C263.871 171.124 264.199 171.036 264.471 170.86C264.751 170.684 264.967 170.44 265.119 170.128C265.271 169.816 265.347 169.456 265.347 169.048C265.347 168.64 265.271 168.284 265.119 167.98C264.967 167.668 264.751 167.424 264.471 167.248C264.199 167.072 263.871 166.984 263.487 166.984C263.103 166.984 262.775 167.076 262.503 167.26C262.231 167.436 262.023 167.68 261.879 167.992C261.735 168.296 261.663 168.648 261.663 169.048C261.663 169.456 261.735 169.816 261.879 170.128C262.023 170.44 262.231 170.684 262.503 170.86C262.775 171.036 263.103 171.124 263.487 171.124ZM272.871 163.324V172H271.695V163.324H272.871ZM275.067 168.904H272.607V167.848H274.815C275.399 167.848 275.847 167.692 276.159 167.38C276.471 167.06 276.627 166.632 276.627 166.096C276.627 165.552 276.471 165.132 276.159 164.836C275.847 164.532 275.415 164.38 274.863 164.38H272.343V163.324H275.067C275.635 163.324 276.127 163.44 276.543 163.672C276.959 163.904 277.283 164.228 277.515 164.644C277.747 165.06 277.863 165.548 277.863 166.108C277.863 166.644 277.747 167.124 277.515 167.548C277.283 167.972 276.959 168.304 276.543 168.544C276.127 168.784 275.635 168.904 275.067 168.904ZM280.431 172H279.255V163.324H280.431L285.195 170.524H284.871V163.324H286.047V172H284.871L280.107 164.8H280.431V172ZM291.848 164.284C291.224 164.284 290.688 164.428 290.24 164.716C289.792 165.004 289.448 165.404 289.208 165.916C288.968 166.428 288.848 167.028 288.848 167.716C288.848 168.412 288.972 169.008 289.22 169.504C289.476 170 289.832 170.38 290.288 170.644C290.744 170.9 291.268 171.028 291.86 171.028C292.236 171.028 292.584 170.98 292.904 170.884C293.224 170.788 293.504 170.64 293.744 170.44C293.984 170.232 294.172 169.968 294.308 169.648C294.452 169.328 294.524 168.952 294.524 168.52V167.704L295.076 168.268H291.62V167.224H295.628V172.012H294.644L294.524 170.404L294.68 170.596C294.552 170.884 294.348 171.144 294.068 171.376C293.788 171.608 293.452 171.796 293.06 171.94C292.668 172.076 292.236 172.144 291.764 172.144C290.948 172.144 290.228 171.96 289.604 171.592C288.98 171.216 288.492 170.696 288.14 170.032C287.788 169.368 287.612 168.588 287.612 167.692C287.612 166.812 287.788 166.032 288.14 165.352C288.5 164.672 289 164.14 289.64 163.756C290.28 163.372 291.024 163.18 291.872 163.18C292.504 163.18 293.08 163.296 293.6 163.528C294.12 163.752 294.548 164.072 294.884 164.488C295.228 164.896 295.444 165.38 295.532 165.94H294.284C294.124 165.388 293.82 164.976 293.372 164.704C292.932 164.424 292.424 164.284 291.848 164.284ZM298.211 172.144C297.979 172.144 297.775 172.064 297.599 171.904C297.431 171.736 297.347 171.536 297.347 171.304C297.347 171.064 297.431 170.864 297.599 170.704C297.775 170.536 297.979 170.452 298.211 170.452C298.443 170.452 298.643 170.536 298.811 170.704C298.979 170.864 299.063 171.064 299.063 171.304C299.063 171.536 298.979 171.736 298.811 171.904C298.643 172.064 298.443 172.144 298.211 172.144ZM305.432 172H304.28V163.324H305.432L308.42 170.62L311.408 163.324H312.584V172H311.432V168.568C311.432 168.16 311.432 167.812 311.432 167.524C311.432 167.236 311.436 166.988 311.444 166.78C311.452 166.572 311.46 166.388 311.468 166.228C311.476 166.06 311.488 165.9 311.504 165.748L308.972 172H307.868L305.348 165.772C305.38 165.98 305.4 166.3 305.408 166.732C305.424 167.164 305.432 167.684 305.432 168.292V172ZM316.189 172.144C315.565 172.144 315.073 171.98 314.713 171.652C314.361 171.324 314.185 170.896 314.185 170.368C314.185 169.832 314.377 169.404 314.761 169.084C315.145 168.756 315.681 168.564 316.369 168.508L318.217 168.364V168.196C318.217 167.868 318.157 167.608 318.037 167.416C317.917 167.216 317.753 167.076 317.545 166.996C317.337 166.908 317.101 166.864 316.837 166.864C316.365 166.864 315.997 166.964 315.733 167.164C315.477 167.356 315.349 167.632 315.349 167.992H314.365C314.365 167.584 314.469 167.228 314.677 166.924C314.885 166.62 315.177 166.384 315.553 166.216C315.937 166.048 316.381 165.964 316.885 165.964C317.373 165.964 317.797 166.052 318.157 166.228C318.525 166.396 318.809 166.656 319.009 167.008C319.217 167.352 319.321 167.788 319.321 168.316V172H318.361L318.241 171.052C318.089 171.388 317.825 171.656 317.449 171.856C317.081 172.048 316.661 172.144 316.189 172.144ZM316.513 171.268C317.049 171.268 317.469 171.108 317.773 170.788C318.077 170.46 318.229 170.02 318.229 169.468V169.156L316.729 169.276C316.233 169.324 315.873 169.44 315.649 169.624C315.433 169.808 315.325 170.044 315.325 170.332C315.325 170.644 315.429 170.88 315.637 171.04C315.853 171.192 316.145 171.268 316.513 171.268ZM321.543 172H320.247L322.299 169.096L320.259 166.132H321.567L323.055 168.316L324.507 166.132H325.791L323.751 169.096L325.755 172H324.447L322.983 169.852L321.543 172ZM329.509 166.132H335.233V167.08H329.509V166.132ZM332.869 163.216V164.188C332.797 164.188 332.717 164.188 332.629 164.188C332.549 164.188 332.461 164.188 332.365 164.188C332.021 164.188 331.789 164.276 331.669 164.452C331.557 164.628 331.501 164.876 331.501 165.196V172H330.373V165.196C330.373 164.716 330.453 164.328 330.613 164.032C330.773 163.728 330.989 163.508 331.261 163.372C331.533 163.236 331.837 163.168 332.173 163.168C332.285 163.168 332.401 163.172 332.521 163.18C332.641 163.188 332.757 163.2 332.869 163.216ZM334.105 172V166.132H335.233V172H334.105ZM334.669 164.692C334.461 164.692 334.289 164.624 334.153 164.488C334.017 164.344 333.949 164.172 333.949 163.972C333.949 163.764 334.017 163.592 334.153 163.456C334.289 163.32 334.461 163.252 334.669 163.252C334.869 163.252 335.037 163.32 335.173 163.456C335.309 163.592 335.377 163.764 335.377 163.972C335.377 164.172 335.309 164.344 335.173 164.488C335.037 164.624 334.869 164.692 334.669 164.692ZM338.048 172H336.92V163.168H338.048V172ZM342.301 172.144C341.733 172.144 341.229 172.016 340.789 171.76C340.349 171.496 340.005 171.136 339.757 170.68C339.509 170.216 339.385 169.68 339.385 169.072C339.385 168.456 339.505 167.916 339.745 167.452C339.993 166.988 340.329 166.624 340.753 166.36C341.185 166.096 341.685 165.964 342.253 165.964C342.813 165.964 343.297 166.084 343.705 166.324C344.121 166.564 344.441 166.9 344.665 167.332C344.897 167.764 345.013 168.272 345.013 168.856V169.276L339.985 169.288L340.009 168.532H343.885C343.885 168.044 343.737 167.652 343.441 167.356C343.145 167.06 342.749 166.912 342.253 166.912C341.877 166.912 341.553 166.996 341.281 167.164C341.017 167.324 340.813 167.564 340.669 167.884C340.533 168.196 340.465 168.572 340.465 169.012C340.465 169.716 340.625 170.26 340.945 170.644C341.265 171.02 341.725 171.208 342.325 171.208C342.765 171.208 343.125 171.12 343.405 170.944C343.685 170.768 343.873 170.512 343.969 170.176H345.025C344.881 170.8 344.573 171.284 344.101 171.628C343.629 171.972 343.029 172.144 342.301 172.144ZM349.194 170.296H350.274C350.274 170.592 350.382 170.828 350.598 171.004C350.814 171.172 351.106 171.256 351.474 171.256C351.874 171.256 352.182 171.18 352.398 171.028C352.614 170.868 352.722 170.656 352.722 170.392C352.722 170.2 352.662 170.04 352.542 169.912C352.43 169.784 352.222 169.68 351.918 169.6L350.886 169.36C350.366 169.232 349.978 169.036 349.722 168.772C349.474 168.508 349.35 168.16 349.35 167.728C349.35 167.368 349.442 167.056 349.626 166.792C349.818 166.528 350.078 166.324 350.406 166.18C350.742 166.036 351.126 165.964 351.558 165.964C351.99 165.964 352.362 166.04 352.674 166.192C352.994 166.344 353.242 166.556 353.418 166.828C353.602 167.1 353.698 167.424 353.706 167.8H352.626C352.618 167.496 352.518 167.26 352.326 167.092C352.134 166.924 351.866 166.84 351.522 166.84C351.17 166.84 350.898 166.916 350.706 167.068C350.514 167.22 350.418 167.428 350.418 167.692C350.418 168.084 350.706 168.352 351.282 168.496L352.314 168.748C352.81 168.86 353.182 169.044 353.43 169.3C353.678 169.548 353.802 169.888 353.802 170.32C353.802 170.688 353.702 171.012 353.502 171.292C353.302 171.564 353.026 171.776 352.674 171.928C352.33 172.072 351.922 172.144 351.45 172.144C350.762 172.144 350.214 171.976 349.806 171.64C349.398 171.304 349.194 170.856 349.194 170.296ZM355.113 172V166.132H356.241V172H355.113ZM355.665 164.74C355.465 164.74 355.289 164.668 355.137 164.524C354.993 164.372 354.921 164.196 354.921 163.996C354.921 163.788 354.993 163.612 355.137 163.468C355.289 163.324 355.465 163.252 355.665 163.252C355.873 163.252 356.049 163.324 356.193 163.468C356.337 163.612 356.409 163.788 356.409 163.996C356.409 164.196 356.337 164.372 356.193 164.524C356.049 164.668 355.873 164.74 355.665 164.74ZM362.15 172H357.578V171.088L360.746 167.08H357.578V166.132H362.15V167.056L358.958 171.052H362.15V172ZM365.886 172.144C365.318 172.144 364.814 172.016 364.374 171.76C363.934 171.496 363.59 171.136 363.342 170.68C363.094 170.216 362.97 169.68 362.97 169.072C362.97 168.456 363.09 167.916 363.33 167.452C363.578 166.988 363.914 166.624 364.338 166.36C364.77 166.096 365.27 165.964 365.838 165.964C366.398 165.964 366.882 166.084 367.29 166.324C367.706 166.564 368.026 166.9 368.25 167.332C368.482 167.764 368.598 168.272 368.598 168.856V169.276L363.57 169.288L363.594 168.532H367.47C367.47 168.044 367.322 167.652 367.026 167.356C366.73 167.06 366.334 166.912 365.838 166.912C365.462 166.912 365.138 166.996 364.866 167.164C364.602 167.324 364.398 167.564 364.254 167.884C364.118 168.196 364.05 168.572 364.05 169.012C364.05 169.716 364.21 170.26 364.53 170.644C364.85 171.02 365.31 171.208 365.91 171.208C366.35 171.208 366.71 171.12 366.99 170.944C367.27 170.768 367.458 170.512 367.554 170.176H368.61C368.466 170.8 368.158 171.284 367.686 171.628C367.214 171.972 366.614 172.144 365.886 172.144ZM372.875 169.06C372.875 168.46 373.007 167.928 373.271 167.464C373.535 167 373.895 166.636 374.351 166.372C374.815 166.108 375.343 165.976 375.935 165.976C376.527 165.976 377.051 166.108 377.507 166.372C377.963 166.636 378.323 167 378.587 167.464C378.851 167.928 378.983 168.46 378.983 169.06C378.983 169.66 378.851 170.192 378.587 170.656C378.323 171.12 377.963 171.484 377.507 171.748C377.051 172.012 376.527 172.144 375.935 172.144C375.343 172.144 374.815 172.012 374.351 171.748C373.895 171.484 373.535 171.12 373.271 170.656C373.007 170.192 372.875 169.66 372.875 169.06ZM374.015 169.06C374.015 169.468 374.095 169.828 374.255 170.14C374.423 170.452 374.651 170.696 374.939 170.872C375.227 171.048 375.559 171.136 375.935 171.136C376.311 171.136 376.643 171.048 376.931 170.872C377.219 170.696 377.443 170.452 377.603 170.14C377.771 169.828 377.855 169.468 377.855 169.06C377.855 168.644 377.771 168.284 377.603 167.98C377.443 167.668 377.219 167.424 376.931 167.248C376.643 167.072 376.311 166.984 375.935 166.984C375.559 166.984 375.227 167.072 374.939 167.248C374.651 167.424 374.423 167.668 374.255 167.98C374.095 168.284 374.015 168.644 374.015 169.06ZM379.632 166.132H383.016V167.08H379.632V166.132ZM383.052 163.216V164.188C382.98 164.188 382.9 164.188 382.812 164.188C382.732 164.188 382.644 164.188 382.548 164.188C382.18 164.188 381.932 164.276 381.804 164.452C381.684 164.628 381.624 164.876 381.624 165.196V172H380.496V165.196C380.496 164.716 380.576 164.328 380.736 164.032C380.904 163.728 381.124 163.508 381.396 163.372C381.676 163.236 381.996 163.168 382.356 163.168C382.468 163.168 382.584 163.172 382.704 163.18C382.824 163.188 382.94 163.2 383.052 163.216ZM393.058 171.988L387.202 172V171.1L389.998 168.688C390.35 168.392 390.642 168.124 390.874 167.884C391.106 167.644 391.29 167.424 391.426 167.224C391.562 167.016 391.658 166.812 391.714 166.612C391.77 166.412 391.798 166.196 391.798 165.964C391.798 165.42 391.65 164.996 391.354 164.692C391.066 164.38 390.658 164.224 390.13 164.224C389.594 164.224 389.162 164.408 388.834 164.776C388.514 165.136 388.35 165.624 388.342 166.24H387.166C387.182 165.624 387.314 165.084 387.562 164.62C387.81 164.156 388.154 163.8 388.594 163.552C389.042 163.296 389.558 163.168 390.142 163.168C390.726 163.168 391.23 163.28 391.654 163.504C392.078 163.728 392.406 164.044 392.638 164.452C392.878 164.852 392.998 165.332 392.998 165.892C392.998 166.196 392.958 166.488 392.878 166.768C392.798 167.04 392.67 167.312 392.494 167.584C392.326 167.848 392.106 168.124 391.834 168.412C391.562 168.692 391.234 169 390.85 169.336L388.582 171.304L388.186 170.896H393.058V171.988ZM395.773 172H394.621V163.324H395.773L398.761 170.62L401.749 163.324H402.925V172H401.773V168.568C401.773 168.16 401.773 167.812 401.773 167.524C401.773 167.236 401.777 166.988 401.785 166.78C401.793 166.572 401.801 166.388 401.809 166.228C401.817 166.06 401.829 165.9 401.845 165.748L399.313 172H398.209L395.689 165.772C395.721 165.98 395.741 166.3 395.749 166.732C395.765 167.164 395.773 167.684 395.773 168.292V172ZM406.181 163.324V172H405.005V163.324H406.181ZM408.413 168.172H405.857V167.152H408.317C408.805 167.152 409.181 167.028 409.445 166.78C409.709 166.532 409.841 166.18 409.841 165.724C409.841 165.292 409.701 164.96 409.421 164.728C409.149 164.488 408.757 164.368 408.245 164.368H405.653V163.324H408.317C409.165 163.324 409.829 163.528 410.309 163.936C410.797 164.344 411.041 164.904 411.041 165.616C411.041 166.152 410.909 166.6 410.645 166.96C410.389 167.312 410.009 167.568 409.505 167.728V167.572C410.065 167.708 410.485 167.956 410.765 168.316C411.053 168.668 411.197 169.124 411.197 169.684C411.197 170.164 411.085 170.58 410.861 170.932C410.645 171.276 410.329 171.54 409.913 171.724C409.497 171.908 409.005 172 408.437 172H405.653V170.956H408.413C408.917 170.956 409.305 170.832 409.577 170.584C409.849 170.336 409.985 169.988 409.985 169.54C409.985 169.108 409.845 168.772 409.565 168.532C409.293 168.292 408.909 168.172 408.413 168.172Z"
    fill="#888399" />
</svg>