<svg width="234" height="56" viewBox="0 0 234 56" fill="none" xmlns="http://www.w3.org/2000/svg">
  <mask id="mask0_345_119483" style="mask-type:alpha" maskUnits="userSpaceOnUse" x="0" y="0"
    width="49" height="56">
    <path fill-rule="evenodd" clip-rule="evenodd"
      d="M24.6846 0.0921231C24.4719 -0.030708 24.2098 -0.0307075 23.997 0.0921236L0.343809 13.7483C0.131059 13.8711 0 14.0982 0 14.3438V41.6562C0 41.9019 0.13106 42.1289 0.34381 42.2517L23.997 55.9079C24.2098 56.0307 24.4719 56.0307 24.6846 55.9079L48.3379 42.2517C48.5506 42.1289 48.6817 41.9019 48.6817 41.6562V14.3438C48.6817 14.0981 48.5506 13.8711 48.3379 13.7483L24.6846 0.0921231ZM22.6078 27.6159V20.0085H26.3642C27.8128 20.0085 28.8931 20.3285 29.6051 20.9686C30.3171 21.5841 30.6731 22.532 30.6731 23.8122C30.6731 25.0924 30.3171 26.0525 29.6051 26.6926C28.8931 27.3081 27.8128 27.6159 26.3642 27.6159H22.6078ZM22.6078 32.9337V42.0182H16.6417V14.6907H21.1347H22.6078H27.69C29.556 14.6907 31.1764 15.0723 32.5513 15.8355C33.9508 16.5987 35.0311 17.6696 35.7922 19.0483C36.5778 20.4024 36.9707 21.9903 36.9707 23.8122C36.9707 25.634 36.5778 27.2343 35.7922 28.613C35.0311 29.967 33.9508 31.0257 32.5513 31.7889C31.1764 32.5521 29.556 32.9337 27.69 32.9337H22.6078Z"
      fill="#5A00CD" />
  </mask>
  <g mask="url(#mask0_345_119483)">
    <path d="M2.73303 23.033L39.8204 34.1592L33.9645 8.19806L2.73303 23.033Z" fill="white"
      fill-opacity="0.23" />
    <path d="M45.09 44.1144L39.8197 34.1594L48.7987 21.2764V42.1624L45.09 44.1144Z" fill="white"
      fill-opacity="0.5" />
    <path d="M39.8201 34.1595L30.2555 52.7031L45.0904 44.1145L39.8201 34.1595Z" fill="white"
      fill-opacity="0.56" />
    <path d="M33.9642 8.19829L36.6969 7.02711L24.3996 -0.19516L23.4236 0.39043L33.9642 8.19829Z"
      fill="white" fill-opacity="0.5" />
    <path
      d="M39.8199 34.1594L33.964 8.19825L36.6967 7.02707L48.7989 13.9279V21.2764L39.8199 34.1594Z"
      fill="white" fill-opacity="0.33" />
    <path
      d="M20.6908 45.676L39.8201 34.1594L2.73275 23.0332L0 23.814V42.1625L3.70873 44.1145L20.6908 45.676Z"
      fill="white" fill-opacity="0.36" />
    <path d="M3.51354 44.1145L20.6908 45.676L2.73275 23.0332L0 23.814V42.1625L3.51354 44.1145Z"
      fill="white" fill-opacity="0.13" />
    <path d="M29.2798 53.2887L20.6912 45.6761L39.8204 34.1595L30.2558 52.7031L29.2798 53.2887Z"
      fill="white" fill-opacity="0.52" />
    <path d="M17.763 52.3127L20.691 45.676L3.51367 44.1144L17.763 52.3127Z" fill="white"
      fill-opacity="0.41" />
    <path d="M24.3993 56.2164L29.2792 53.2884L20.6905 45.6758L17.7626 52.3125L24.3993 56.2164Z"
      fill="white" fill-opacity="0.63" />
    <path d="M33.9645 8.19821L23.4239 0.39035L9.56491 8.3934L2.73303 23.0331L33.9645 8.19821Z"
      fill="white" fill-opacity="0.41" />
    <path d="M0 13.8588L9.56463 8.39325L2.73275 23.033L0 23.8138V13.8588Z" fill="white"
      fill-opacity="0.52" />
  </g>
  <line x1="61.4752" y1="8.5" x2="61.4752" y2="47.2682" stroke="url(#paint0_linear_345_119483)"
    stroke-opacity="0.9" stroke-width="0.775364" />
  <path
    d="M73.5354 39.5V17.7898H82.7467C84.0493 17.7898 85.2176 18.1 86.2514 18.7203C87.2852 19.3199 88.1019 20.1469 88.7015 21.2014C89.3218 22.2352 89.632 23.4138 89.632 24.7371C89.632 26.081 89.3218 27.3009 88.7015 28.3968C88.1019 29.472 87.2852 30.33 86.2514 30.971C85.2176 31.5913 84.0493 31.9014 82.7467 31.9014H78.1876V39.5H73.5354ZM78.1256 27.6835H82.2505C82.7261 27.6835 83.1603 27.5594 83.5531 27.3113C83.946 27.0632 84.2664 26.722 84.5146 26.2878C84.7627 25.8536 84.8867 25.3574 84.8867 24.7991C84.8867 24.2408 84.7627 23.7549 84.5146 23.3414C84.2664 22.9279 83.946 22.5971 83.5531 22.349C83.1603 22.1008 82.7261 21.9768 82.2505 21.9768H78.1256V27.6835ZM92.2471 39.5V23.0933H96.4961L96.6512 28.3658L95.9068 27.2493C96.1756 26.4222 96.5788 25.6675 97.1164 24.9852C97.6747 24.3029 98.326 23.7653 99.0703 23.3724C99.8353 22.9589 100.631 22.7521 101.458 22.7521C101.831 22.7521 102.172 22.7832 102.482 22.8452C102.813 22.8865 103.092 22.9589 103.319 23.0623L102.141 27.8695C101.913 27.7662 101.614 27.6731 101.241 27.5904C100.89 27.487 100.528 27.4353 100.156 27.4353C99.6803 27.4353 99.2254 27.5284 98.7912 27.7145C98.3777 27.8799 98.0055 28.128 97.6747 28.4588C97.3645 28.769 97.1164 29.1411 96.9303 29.5753C96.7649 30.0095 96.6822 30.4954 96.6822 31.033V39.5H92.2471ZM111.818 39.8101C110.164 39.8101 108.675 39.4483 107.352 38.7246C106.049 37.9803 105.015 36.9671 104.25 35.6852C103.506 34.4033 103.134 32.9456 103.134 31.3122C103.134 29.6374 103.506 28.159 104.25 26.8771C105.015 25.5951 106.049 24.5923 107.352 23.8687C108.675 23.1243 110.164 22.7521 111.818 22.7521C113.493 22.7521 114.981 23.1243 116.284 23.8687C117.586 24.5923 118.61 25.5951 119.354 26.8771C120.119 28.159 120.502 29.6374 120.502 31.3122C120.502 32.9456 120.119 34.4033 119.354 35.6852C118.61 36.9671 117.586 37.9803 116.284 38.7246C114.981 39.4483 113.493 39.8101 111.818 39.8101ZM111.818 35.9954C112.645 35.9954 113.369 35.7886 113.989 35.3751C114.63 34.9615 115.126 34.4033 115.477 33.7003C115.85 32.9973 116.025 32.2012 116.005 31.3122C116.025 30.3817 115.85 29.565 115.477 28.862C115.126 28.1383 114.63 27.5801 113.989 27.1872C113.369 26.7737 112.645 26.5669 111.818 26.5669C111.011 26.5669 110.288 26.7737 109.647 27.1872C109.006 27.6008 108.499 28.159 108.127 28.862C107.755 29.565 107.579 30.3817 107.6 31.3122C107.579 32.2012 107.755 32.9973 108.127 33.7003C108.499 34.4033 109.006 34.9615 109.647 35.3751C110.288 35.7886 111.011 35.9954 111.818 35.9954ZM129.336 39.8101C127.909 39.8101 126.617 39.4483 125.459 38.7246C124.322 38.001 123.422 36.9982 122.761 35.7162C122.12 34.4136 121.799 32.9456 121.799 31.3122C121.799 29.658 122.12 28.19 122.761 26.9081C123.422 25.6262 124.322 24.613 125.459 23.8687C126.596 23.1243 127.889 22.7521 129.336 22.7521C130.101 22.7521 130.835 22.8762 131.538 23.1243C132.262 23.3518 132.903 23.6722 133.461 24.0858C134.019 24.4993 134.474 24.9645 134.825 25.4814C135.177 25.9777 135.384 26.4946 135.446 27.0322L134.329 27.2493V16.5492H138.702V39.5H134.546L134.36 35.7162L135.229 35.8403C135.208 36.3365 135.032 36.8224 134.701 37.298C134.371 37.7735 133.926 38.2077 133.368 38.6006C132.83 38.9728 132.21 39.2726 131.507 39.5C130.825 39.7068 130.101 39.8101 129.336 39.8101ZM130.297 36.1504C131.145 36.1504 131.869 35.9437 132.468 35.5301C133.089 35.1166 133.575 34.548 133.926 33.8243C134.278 33.1007 134.453 32.2633 134.453 31.3122C134.453 30.3404 134.278 29.4926 133.926 28.769C133.575 28.0246 133.089 27.456 132.468 27.0632C131.869 26.6496 131.145 26.4429 130.297 26.4429C129.491 26.4429 128.778 26.6496 128.157 27.0632C127.537 27.456 127.051 28.0246 126.7 28.769C126.369 29.4926 126.203 30.3404 126.203 31.3122C126.203 32.2633 126.369 33.1007 126.7 33.8243C127.051 34.548 127.537 35.1166 128.157 35.5301C128.778 35.9437 129.491 36.1504 130.297 36.1504ZM148.164 39.8101C146.986 39.8101 145.962 39.5517 145.094 39.0348C144.226 38.4972 143.554 37.7425 143.078 36.7707C142.623 35.7783 142.396 34.5997 142.396 33.2351V23.0933H146.8V32.4287C146.8 33.5866 147.069 34.4963 147.606 35.158C148.164 35.7989 148.929 36.1194 149.901 36.1194C150.397 36.1194 150.842 36.047 151.235 35.9023C151.648 35.7369 152 35.5095 152.289 35.22C152.579 34.9305 152.806 34.5894 152.972 34.1965C153.137 33.8037 153.22 33.3695 153.22 32.8939V23.0933H157.624V39.5H153.437L153.313 36.1194L154.088 35.7472C153.861 36.5123 153.447 37.2049 152.848 37.8252C152.269 38.4455 151.576 38.9314 150.77 39.2829C149.963 39.6344 149.095 39.8101 148.164 39.8101ZM168.258 39.8101C166.687 39.8101 165.281 39.438 164.04 38.6936C162.8 37.9493 161.818 36.9361 161.094 35.6542C160.391 34.3516 160.039 32.9042 160.039 31.3122C160.039 29.6787 160.391 28.221 161.094 26.9391C161.818 25.6365 162.8 24.613 164.04 23.8687C165.281 23.1243 166.687 22.7521 168.258 22.7521C169.726 22.7521 171.06 23.0313 172.259 23.5895C173.479 24.1271 174.43 24.8715 175.112 25.8226L172.724 28.738C172.435 28.3451 172.073 27.9833 171.639 27.6524C171.205 27.3216 170.729 27.0632 170.212 26.8771C169.716 26.691 169.199 26.5979 168.661 26.5979C167.814 26.5979 167.059 26.8047 166.397 27.2182C165.736 27.6111 165.219 28.1694 164.847 28.893C164.474 29.596 164.288 30.3921 164.288 31.2811C164.288 32.1496 164.485 32.9353 164.878 33.6382C165.27 34.3412 165.798 34.8995 166.459 35.313C167.121 35.7266 167.855 35.9333 168.661 35.9333C169.199 35.9333 169.706 35.861 170.181 35.7162C170.677 35.5508 171.132 35.313 171.546 35.0029C171.959 34.6927 172.352 34.3309 172.724 33.9174L175.112 36.8327C174.43 37.7218 173.458 38.4455 172.197 39.0038C170.956 39.5414 169.644 39.8101 168.258 39.8101ZM178.586 39.5V18.9374H182.99V39.5H178.586ZM175.515 27.0322V23.0933H186.37V27.0322H175.515ZM202.608 39.5V17.7898H207.26V39.5H202.608ZM188.9 39.5V17.7898H193.552V39.5H188.9ZM190.792 30.8159V26.5359H204.965V30.8159H190.792ZM227.278 42.9426L218.997 31.8704L222.501 29.4203L230.689 40.3994L227.278 42.9426ZM220.672 39.8101C219.079 39.8101 217.601 39.531 216.236 38.9728C214.893 38.4145 213.724 37.6391 212.732 36.6467C211.76 35.6335 210.995 34.4446 210.437 33.08C209.899 31.7153 209.63 30.2163 209.63 28.5829C209.63 26.9701 209.899 25.4814 210.437 24.1168C210.995 22.7521 211.76 21.5633 212.732 20.5501C213.724 19.537 214.893 18.7513 216.236 18.193C217.601 17.6347 219.079 17.3556 220.672 17.3556C222.264 17.3556 223.721 17.6347 225.045 18.193C226.389 18.7513 227.557 19.537 228.549 20.5501C229.542 21.5633 230.307 22.7521 230.844 24.1168C231.403 25.4814 231.682 26.9805 231.682 28.6139C231.682 30.206 231.403 31.6843 230.844 33.049C230.307 34.4136 229.542 35.6025 228.549 36.6156C227.557 37.6288 226.389 38.4145 225.045 38.9728C223.721 39.531 222.264 39.8101 220.672 39.8101ZM220.672 35.4061C221.581 35.4061 222.419 35.2407 223.184 34.9098C223.949 34.5583 224.61 34.0828 225.169 33.4832C225.748 32.8629 226.192 32.1392 226.502 31.3122C226.812 30.4851 226.968 29.5857 226.968 28.6139C226.968 27.6214 226.812 26.7117 226.502 25.8846C226.192 25.0576 225.748 24.3339 225.169 23.7136C224.61 23.0933 223.949 22.6177 223.184 22.2869C222.419 21.9354 221.581 21.7597 220.672 21.7597C219.762 21.7597 218.914 21.9354 218.128 22.2869C217.363 22.6177 216.691 23.0933 216.112 23.7136C215.554 24.3132 215.12 25.0369 214.81 25.8846C214.5 26.7117 214.345 27.6214 214.345 28.6139C214.345 29.9165 214.613 31.0847 215.151 32.1185C215.709 33.1317 216.464 33.9381 217.415 34.5377C218.366 35.1166 219.452 35.4061 220.672 35.4061Z"
    fill="white" />
  <defs>
    <linearGradient id="paint0_linear_345_119483" x1="60.0875" y1="8.40916" x2="60.0875"
      y2="47.1774" gradientUnits="userSpaceOnUse">
      <stop stop-color="white" stop-opacity="0" />
      <stop offset="0.505208" stop-color="white" />
      <stop offset="1" stop-color="white" stop-opacity="0" />
    </linearGradient>
  </defs>
</svg>