<svg width="24" height="24" viewBox="0 0 24 24" fill="none" xmlns="http://www.w3.org/2000/svg">
  <path
    d="M8.36203 7C8.88526 7 9.259 7.35411 9.259 7.83569V16.2351C9.259 16.6459 8.90021 16.9858 8.46667 16.9858C8.03314 16.9858 7.67435 16.6459 7.67435 16.2351V8.28895H6.68768C6.31394 8.28895 6 8.00567 6 7.63739C6 7.28329 6.31394 7 6.68768 7H8.36203Z"
    fill="#5A00CD" />
  <path
    d="M16.7891 13.204H17.3123C17.6861 13.204 18 13.4873 18 13.8272C18 14.1813 17.6861 14.4504 17.3123 14.4504H16.7891V16.2493C16.7891 16.6601 16.4303 17 15.9968 17C15.5632 17 15.2044 16.6601 15.2044 16.2493V14.4504H11.8707C10.8541 14.4504 10.5252 13.6997 11.0485 12.9915L15.1147 7.46742C15.6828 6.68839 16.7891 6.97167 16.7891 7.86402V13.204ZM15.2044 9.43626L12.4836 13.204H15.2044V9.43626Z"
    fill="#5A00CD" />
  <circle cx="12" cy="12" r="11.35" stroke="#5A00CD" stroke-width="1.3" />
</svg>