<svg width="24" height="24" viewBox="0 0 24 24" fill="none" xmlns="http://www.w3.org/2000/svg">
  <g clip-path="url(#clip0_932_1950)">
    <path
      d="M18.75 20.1647C16.8577 21.7313 14.4605 22.5938 12 22.5938C9.17016 22.5938 6.51 21.4917 4.50891 19.4911C2.50828 17.49 1.40625 14.8298 1.40625 12C1.40625 11.5434 1.43531 11.0855 1.49344 10.6378C1.57781 9.97734 1.72547 9.3225 1.93266 8.69156C1.93805 8.67516 1.94381 8.65866 1.9493 8.6422C2.00255 8.64645 2.05595 8.64868 2.10938 8.64891C3.27234 8.64891 4.21875 7.7025 4.21875 6.53953C4.21875 5.37656 3.27234 4.43016 2.10938 4.43016C0.946406 4.43016 1.59838e-08 5.37656 1.59838e-08 6.53953C1.59838e-08 7.14098 0.253547 7.68412 0.658875 8.06878C0.637547 8.13019 0.616781 8.19159 0.596719 8.25286C0.361342 8.97079 0.194503 9.7094 0.0984375 10.4588C0.0328529 10.9699 -2.64657e-05 11.4847 1.59838e-08 12C1.59838e-08 15.2053 1.24828 18.2189 3.51469 20.4853C5.78109 22.7517 8.79469 24 12 24C14.7872 24 17.5031 23.0227 19.6467 21.2475C19.9463 21 19.988 20.557 19.74 20.258C19.4925 19.9584 19.0495 19.9167 18.75 20.1647ZM23.3411 15.9313C23.3625 15.8699 23.3832 15.8085 23.4033 15.7472C23.6381 15.0314 23.8059 14.2889 23.9016 13.5413C23.9667 13.0355 24 12.517 24 12C24 8.79469 22.7517 5.78109 20.4853 3.51469C18.2189 1.24828 15.2053 0 12 0C9.21281 0 6.49688 0.977344 4.35328 2.7525C4.05375 3 4.01203 3.44297 4.26 3.74203C4.5075 4.04156 4.95047 4.08328 5.25 3.83531C7.14234 2.26875 9.53953 1.40625 12 1.40625C14.8298 1.40625 17.49 2.50828 19.4911 4.50891C21.4917 6.51 22.5938 9.17016 22.5938 12C22.5938 12.4566 22.5647 12.9145 22.5066 13.3622C22.4222 14.0227 22.2745 14.6775 22.0673 15.3084C22.062 15.3248 22.0562 15.3413 22.0507 15.3578C21.9974 15.3536 21.944 15.3513 21.8906 15.3511C20.7277 15.3511 19.7812 16.2975 19.7812 17.4605C19.7812 18.6234 20.7277 19.5698 21.8906 19.5698C23.0536 19.5698 24 18.6234 24 17.4605C24 16.859 23.7465 16.3159 23.3411 15.9313Z"
      fill="#5A00CD" />
    <path
      d="M8.14386 16.7109C6.49943 16.7109 5.16162 15.3731 5.16162 13.7287V10.0838C5.16162 8.43938 6.49943 7.10156 8.14386 7.10156C9.78828 7.10156 11.1261 8.43942 11.1261 10.0838V13.7287C11.1261 15.3731 9.78828 16.7109 8.14386 16.7109ZM8.14386 8.50781C7.27484 8.50781 6.56787 9.21483 6.56787 10.0838V13.7287C6.56787 14.5977 7.27484 15.3047 8.14386 15.3047C9.01287 15.3047 9.71989 14.5977 9.71989 13.7287V10.0838C9.71989 9.21483 9.01287 8.50781 8.14386 8.50781ZM15.6648 16.7109C14.0853 16.711 12.7399 15.547 12.5211 13.9788C12.5008 13.8324 12.4906 13.6848 12.4906 13.537C12.4906 13.1487 12.8054 12.8339 13.1937 12.8339C13.582 12.8339 13.8968 13.1487 13.8968 13.537C13.8968 13.62 13.9025 13.7033 13.9139 13.7845C14.0374 14.6689 14.8076 15.3237 15.7013 15.3043C16.6228 15.2858 17.382 14.5512 17.4297 13.632C17.4552 13.1413 17.2835 12.6755 16.9464 12.3204C16.609 11.965 16.1538 11.7693 15.6645 11.7693C14.9954 11.7693 14.72 11.8707 14.3762 12.0255C14.3352 12.0439 14.3099 12.0564 14.3037 12.0596C14.1879 12.1194 14.0578 12.1458 13.9279 12.1359C13.798 12.1259 13.6734 12.0799 13.5681 12.0031C13.353 11.8466 13.2456 11.5815 13.2891 11.319L13.8904 7.68975C13.9177 7.52543 14.0023 7.37612 14.1294 7.2684C14.2564 7.16068 14.4176 7.10156 14.5841 7.10156H17.6194C18.0077 7.10156 18.3225 7.41637 18.3225 7.80469C18.3225 8.193 18.0077 8.50781 17.6194 8.50781H15.1803L14.8641 10.4161C15.0952 10.3813 15.3552 10.363 15.6646 10.363C16.5305 10.363 17.3694 10.7235 17.9663 11.3521C18.5716 11.9897 18.8798 12.8252 18.8342 13.7048C18.7485 15.3568 17.3848 16.6769 15.7297 16.7103C15.708 16.7107 15.6863 16.7109 15.6648 16.7109Z"
      fill="#5A00CD" />
  </g>
  <defs>
    <clipPath id="clip0_932_1950">
      <rect width="24" height="24" fill="white" />
    </clipPath>
  </defs>
</svg>