<svg width="178" height="178" viewBox="0 0 178 178" fill="none" xmlns="http://www.w3.org/2000/svg">
<circle cx="89" cy="89" r="87" stroke="white" stroke-width="3.5"/>
<path d="M7 61.8147L170 61.8147M170 116.242H151.639L8 116.3M37.279 61.8147V49.4624C37.2789 48.3042 37.6481 47.176 38.3328 46.2417C39.0174 45.3075 39.9821 44.6157 41.0866 44.2669L55.8766 39.5961L85.7577 30.16C87.8933 29.4857 90.1848 29.4857 92.3204 30.16L136.992 44.2669C138.096 44.6157 139.061 45.3075 139.746 46.2417C140.43 47.176 140.799 48.3042 140.799 49.4624V61.8147M44.8147 116.3C55.0837 135.025 73.4186 146.681 84.1376 152.122C85.656 152.895 87.3355 153.298 89.0392 153.298C90.7429 153.298 92.4224 152.895 93.9408 152.122C104.66 146.68 122.995 135.024 133.264 116.299M89.0392 61.8147V30.3744M89.0392 116.299V151.714" stroke="white" stroke-width="3.5" stroke-miterlimit="10" stroke-linecap="round" stroke-linejoin="round"/>
<path d="M96.7976 100.156L105.94 76.1513C106.127 75.6946 106.773 75.6939 106.961 76.1503L116.021 100.156M99.6489 94.1777H113.215M156.34 78.3114C156.34 78.3114 151.971 74.639 146.819 76.1908C142.088 77.6157 141.427 83.0706 144.849 85.302C144.849 85.302 148.207 86.8004 151.933 88.1743C160.899 91.4817 157.037 100.157 149.818 100.157C146.204 100.157 143.17 98.5736 141.334 96.5474M119.327 75.8081L127.104 87.719M127.104 87.719L134.818 75.87M127.104 87.719L127.074 100.156M90.6991 87.9823C90.6991 94.4927 87.0859 99.6441 81.3534 99.7443C79.4452 99.7776 74.5137 99.7963 74.5137 99.7963L74.4658 76.1687H81.1577C87.4451 76.1683 90.6991 81.4719 90.6991 87.9823Z" stroke="white" stroke-width="3.5" stroke-miterlimit="10" stroke-linecap="round" stroke-linejoin="round"/>
<path d="M31.2 84.76C33.44 84.76 35.2267 85.4667 36.56 86.88C37.92 88.2667 38.6 90.0933 38.6 92.36V94.84C38.6 97.1067 37.8267 98.96 36.28 100.4C34.76 101.813 32.7867 102.52 30.36 102.52C27.7467 102.52 25.5867 101.707 23.88 100.08C22.2 98.4267 21.36 96.1467 21.36 93.24V83.04C21.36 80.0267 22.1467 77.68 23.72 76C25.2933 74.32 27.4933 73.48 30.32 73.48C34.9333 73.48 37.64 75.8133 38.44 80.48L35.56 80.96C35.1067 79.2267 34.4267 78.0267 33.52 77.36C32.64 76.6667 31.52 76.32 30.16 76.32C28.2933 76.32 26.88 76.8933 25.92 78.04C24.96 79.16 24.48 80.7867 24.48 82.92V87.28C26.2933 85.6 28.5333 84.76 31.2 84.76ZM35.48 94.8V92.64C35.48 90.9333 35.04 89.6667 34.16 88.84C33.28 88.0133 32.08 87.6 30.56 87.6C27.9733 87.6 25.9467 88.6133 24.48 90.64V93.56C24.48 95.4533 25.0133 96.9467 26.08 98.04C27.1733 99.1067 28.5867 99.64 30.32 99.64C31.84 99.64 33.08 99.2 34.04 98.32C35 97.44 35.48 96.2667 35.48 94.8ZM52.2331 102.52C49.6998 102.52 47.5798 101.693 45.8731 100.04C44.1665 98.3867 43.3131 96.12 43.3131 93.24V82.72C43.3131 79.84 44.1665 77.5867 45.8731 75.96C47.5798 74.3067 49.6998 73.48 52.2331 73.48C54.7398 73.48 56.8465 74.3067 58.5531 75.96C60.2598 77.5867 61.1131 79.84 61.1131 82.72V93.24C61.1131 96.12 60.2598 98.3867 58.5531 100.04C56.8465 101.693 54.7398 102.52 52.2331 102.52ZM52.2331 99.6C53.9131 99.6 55.2865 99.0267 56.3531 97.88C57.4465 96.7067 57.9931 95.1733 57.9931 93.28V82.68C57.9931 80.7867 57.4465 79.2667 56.3531 78.12C55.2865 76.9467 53.9131 76.36 52.2331 76.36C50.5265 76.36 49.1265 76.9467 48.0331 78.12C46.9665 79.2667 46.4331 80.7867 46.4331 82.68V93.28C46.4331 95.1733 46.9665 96.7067 48.0331 97.88C49.1265 99.0267 50.5265 99.6 52.2331 99.6Z" fill="white"/>
</svg>
