<svg width="14" height="8" viewBox="0 0 14 8" fill="none" xmlns="http://www.w3.org/2000/svg">
<path fill-rule="evenodd" clip-rule="evenodd" d="M7.70685 7.70685C7.51933 7.89433 7.26502 7.99964 6.99985 7.99964C6.73469 7.99964 6.48038 7.89433 6.29285 7.70685L0.635855 2.04985C0.540345 1.95761 0.464162 1.84726 0.411753 1.72526C0.359344 1.60326 0.331758 1.47204 0.330604 1.33926C0.32945 1.20648 0.354752 1.0748 0.405033 0.951901C0.455314 0.829005 0.529567 0.717352 0.62346 0.623459C0.717353 0.529567 0.829004 0.455314 0.951901 0.405033C1.0748 0.354752 1.20648 0.32945 1.33926 0.330604C1.47204 0.331758 1.60325 0.359344 1.72526 0.411753C1.84726 0.464162 1.95761 0.540344 2.04985 0.635854L6.99985 5.58586L11.9499 0.635854C12.1385 0.453696 12.3911 0.352902 12.6533 0.35518C12.9155 0.357459 13.1663 0.462628 13.3517 0.648036C13.5371 0.833444 13.6423 1.08426 13.6445 1.34645C13.6468 1.60865 13.546 1.86125 13.3639 2.04985L7.70685 7.70685Z" fill="black"/>
</svg>
