<svg width="21" height="15" viewBox="0 0 21 15" fill="none" xmlns="http://www.w3.org/2000/svg">
<path fill-rule="evenodd" clip-rule="evenodd" d="M0 7.49997C0 7.30106 0.0790176 7.11029 0.21967 6.96964C0.360322 6.82899 0.551088 6.74997 0.75 6.74997H18.4395L13.719 2.03097C13.5782 1.89014 13.4991 1.69913 13.4991 1.49997C13.4991 1.30081 13.5782 1.1098 13.719 0.968971C13.8598 0.828141 14.0508 0.749023 14.25 0.749023C14.4492 0.749023 14.6402 0.828141 14.781 0.968971L20.781 6.96897C20.8508 7.03864 20.9063 7.1214 20.9441 7.21252C20.9819 7.30364 21.0013 7.40132 21.0013 7.49997C21.0013 7.59862 20.9819 7.6963 20.9441 7.78742C20.9063 7.87854 20.8508 7.9613 20.781 8.03097L14.781 14.031C14.6402 14.1718 14.4492 14.2509 14.25 14.2509C14.0508 14.2509 13.8598 14.1718 13.719 14.031C13.5782 13.8901 13.4991 13.6991 13.4991 13.5C13.4991 13.3008 13.5782 13.1098 13.719 12.969L18.4395 8.24997H0.75C0.551088 8.24997 0.360322 8.17095 0.21967 8.0303C0.0790176 7.88965 0 7.69888 0 7.49997Z" fill="#5A00CD"/>
</svg>
