<svg width="24" height="24" viewBox="0 0 24 24" fill="none" xmlns="http://www.w3.org/2000/svg">
  <path
    d="M11.9801 22.3262C10.6218 22.3287 9.27634 22.0628 8.02113 21.5437C6.76591 21.0246 5.62566 20.2625 4.66589 19.3013C0.632203 15.2677 0.632203 8.70491 4.66589 4.67127C5.62424 3.70753 6.76421 2.94345 8.01984 2.42325C9.27547 1.90304 10.6218 1.63705 11.9809 1.64066C14.7442 1.64066 17.342 2.71649 19.2951 4.67127C21.249 6.62521 22.3257 9.22297 22.3257 11.9863C22.3257 14.7496 21.2498 17.3474 19.2951 19.3013C18.3351 20.2625 17.1947 21.0245 15.9394 21.5436C14.6841 22.0627 13.3385 22.3287 11.9801 22.3262ZM11.9809 3.29586C10.8392 3.29261 9.7082 3.51593 8.65341 3.9529C7.59862 4.38986 6.64102 5.03177 5.83608 5.84146C4.19498 7.4826 3.29123 9.66491 3.29123 11.9863C3.29123 14.3077 4.19498 16.4892 5.83608 18.1311C9.2242 21.5193 14.7376 21.5201 18.1249 18.1311C19.766 16.4901 20.6706 14.3077 20.6706 11.9863C20.6706 9.66491 19.7668 7.4834 18.1249 5.84146C17.32 5.03205 16.3625 4.3903 15.3079 3.95334C14.2533 3.51639 13.1225 3.29295 11.9809 3.29586Z"
    fill="#5A00CD" />
  <path
    d="M8.46918 16.3242C8.30536 16.3246 8.14512 16.2762 8.0088 16.1854C7.87249 16.0945 7.76623 15.9652 7.70353 15.8139C7.64085 15.6625 7.62455 15.4959 7.6567 15.3353C7.68885 15.1746 7.76799 15.0271 7.88409 14.9116L14.9062 7.88949C14.983 7.81264 15.0742 7.75168 15.1746 7.71009C15.275 7.6685 15.3826 7.64709 15.4912 7.64709C15.5999 7.64709 15.7075 7.6685 15.8079 7.71009C15.9083 7.75168 15.9995 7.81264 16.0763 7.88949C16.1532 7.96632 16.2141 8.05754 16.2557 8.15793C16.2973 8.25832 16.3187 8.36592 16.3187 8.47459C16.3187 8.58325 16.2973 8.69085 16.2557 8.79124C16.2141 8.89164 16.1532 8.98285 16.0763 9.05968L9.05428 16.0818C8.97764 16.1589 8.88646 16.22 8.78602 16.2616C8.68559 16.3033 8.5779 16.3245 8.46918 16.3242Z"
    fill="#5A00CD" />
  <path
    d="M15.4918 16.3242C15.3831 16.3243 15.2755 16.303 15.1751 16.2614C15.0747 16.2198 14.9835 16.1587 14.9067 16.0818L7.88462 9.05965C7.73269 8.9038 7.64828 8.69437 7.64968 8.47672C7.65107 8.25908 7.73814 8.05074 7.89205 7.89685C8.04595 7.74295 8.25429 7.65588 8.47193 7.6545C8.68958 7.65311 8.89901 7.73753 9.05485 7.88946L16.0769 14.9115C16.1931 15.0271 16.2722 15.1746 16.3044 15.3352C16.3365 15.4959 16.3202 15.6625 16.2575 15.8138C16.1948 15.9652 16.0885 16.0945 15.9522 16.1854C15.8159 16.2762 15.6557 16.3246 15.4918 16.3242Z"
    fill="#5A00CD" />
</svg>