<svg fill="none" height="23" viewBox="0 0 25 23" width="25" xmlns="http://www.w3.org/2000/svg">
  <path
    d="m18.704 18.8295h.6322c1.7198 0 3.1189-1.3992 3.1189-3.1189 0-.4307-.3491-.7798-.7798-.7798-.4306 0-.7797.3491-.7797.7798 0 .8598-.6996 1.5594-1.5594 1.5594h-2.1917z"
    fill="#fff" />
  <path clip-rule="evenodd"
    d="m19.3362 17.27c.2719 0 .5278-.07.7507-.1929.1951-.1076.3648-.2558.4977-.433.1952-.2605.311-.5838.311-.9335 0-.4307.3491-.7798.7797-.7798.4307 0 .7798.3491.7798.7798 0 .7892-.2947 1.5109-.7798 2.0608-.0101.0115-.0204.023-.0307.0343-.5709.6285-1.3944 1.0238-2.3084 1.0238h-.6322l-1.5595-1.5595z"
    fill="#5a00cd" fill-rule="evenodd" />
  <path
    d="m14.7721 17.27h-9.15916c-.86125 0-1.55946-.6982-1.55946-1.5594v-5.84802h1.75645c.69467 0 1.04254-.83513.55135-1.32636-.14624-.1462-.34456-.22834-.55135-.22834h-1.75645v-1.01841c0-.11953.01357-.2359.03922-.34776.02966-.12879.02612-.26301-.0103-.39007-.03643-.12705-.10453-.24276-.19793-.33628-.43209-.43209-1.17341-.22261-1.31088.37279-.05301.23-.0797.46529-.07957.70132v8.42113c0 1.7225 1.39638 3.1189 3.11892 3.1189h9.15916c.6946 0 1.0425-.8399.5513-1.3311-.1462-.1463-.3445-.2284-.5513-.2284z"
    fill="#fff" />
  <g clip-rule="evenodd" fill="#5a00cd" fill-rule="evenodd">
    <path
      d="m14.7721 17.27c.2068 0 .4051.0821.5513.2284.4912.4912.1433 1.3311-.5513 1.3311h-9.15916c-1.72254 0-3.11892-1.3964-3.11892-3.1189v-8.42113c-.00005-.09562.0043-.19113.01301-.28621.00049-.00527.00098-.01054.00149-.01581.01285-.13259.03419-.26434.06394-.3944.00011-.00047.00022-.00093.00032-.0014.00027-.00117.00054-.00234.00081-.0035.13747-.59541.87879-.80488 1.31088-.37279.07264.07273.12997.15888.16901.25335.01116.02701.02082.05469.02892.08293.03611.12597.0399.25899.01105.38679-.00005.00019.00004-.0002 0 0-.0002.00089-.00054.00239-.00075.00328-.00348.01517-.00673.03042-.00976.04574-.01927.09745-.0294.19813-.02946.30115v1.01928h1.75645c.20679 0 .40511.08214.55135.22834.49119.49123.14332 1.32636-.55135 1.32636h-1.75645v5.84802c0 .8612.69821 1.5594 1.55946 1.5594z" />
    <path
      d="m9.29224 9.08754c0 .47636.38617.86253.86256.86253h10.8577c.4764 0 .8625-.38617.8625-.86253 0-.47637-.3861-.86254-.8625-.86254h-10.8577c-.47639 0-.86256.38617-.86256.86254z" />
    <path
      d="m21.6753 12.6792c.4764 0 .8625-.3862.8625-.8625v-4.52722c0-1.76827-1.4334-3.20173-3.2017-3.20173h-13.29436c-.47637 0-.86254.38617-.86254.86254 0 .47636.38617.86254.86254.86254h13.29436c.8155 0 1.4767.66112 1.4767 1.47665v4.52722c0 .4763.3861.8625.8625.8625z" />
    <path
      d="m22.2852 21.3107c.3368-.3368.3368-.8829 0-1.2198l-18.40162-18.4016c-.33684-.33684-.88297-.33684-1.21982 0-.33684.33684-.33684.88297 0 1.21981l18.40164 18.40159c.3368.3369.8829.3369 1.2198 0z" />
  </g>
</svg>