<svg width="110" height="110" viewBox="0 0 110 110" fill="none" xmlns="http://www.w3.org/2000/svg">
<g clip-path="url(#clip0_418_119529)">
<path d="M50.8646 40.4546C47.4586 40.4546 44.6975 43.2157 44.6975 46.6217V71.2902C44.6975 74.6962 47.4586 77.4573 50.8646 77.4573H80.8488C81.394 77.4573 81.9169 77.6739 82.3024 78.0594L89.1963 84.9533C89.8438 85.6009 90.951 85.1423 90.951 84.2265V46.6217C90.951 43.2157 88.1898 40.4546 84.7838 40.4546H50.8646Z" stroke="#FF6334" stroke-width="7"/>
<path d="M61.093 30V29.8453C61.093 26.4393 58.3319 23.6782 54.9259 23.6782H25.1181C21.7121 23.6782 18.951 26.4393 18.951 29.8453V63.3388C18.951 64.2545 20.0581 64.7131 20.7056 64.0656L26.7773 57.9939C27.1628 57.6084 27.6857 57.3918 28.2309 57.3918H34.5002" stroke="#FF6334" stroke-width="7" stroke-linecap="round" stroke-linejoin="round"/>
</g>
<defs>
<clipPath id="clip0_418_119529">
<rect width="80" height="80" fill="white" transform="translate(14.9998 15)"/>
</clipPath>
</defs>
</svg>
