<svg width="19" height="19" viewBox="0 0 19 19" fill="none" xmlns="http://www.w3.org/2000/svg">
<path d="M7.46164 18.5294C7.96328 18.5294 8.35442 18.3227 8.63478 17.9096L18.4961 2.44792C18.5993 2.28559 18.6731 2.13802 18.7175 2.00521C18.7617 1.86501 18.7838 1.72852 18.7838 1.59571C18.7838 1.27105 18.6805 1.00912 18.474 0.809896C18.2748 0.603303 18.0128 0.5 17.6881 0.5C17.452 0.5 17.2565 0.547954 17.1016 0.643877C16.954 0.732418 16.8064 0.887373 16.6588 1.10873L7.4173 15.8067L2.64713 9.61979C2.37414 9.25089 2.0421 9.06644 1.65104 9.06644C1.31164 9.06644 1.03493 9.1734 0.82096 9.38732C0.606987 9.59401 0.5 9.85963 0.5 10.1842C0.5 10.3318 0.525826 10.4794 0.577477 10.6269C0.636496 10.7671 0.728735 10.9111 0.854167 11.0586L6.26626 17.8984C6.60569 18.319 7.00406 18.5294 7.46164 18.5294Z" fill="#5A00CD"/>
</svg>
