<svg width="24" height="25" viewBox="0 0 24 25" fill="none" xmlns="http://www.w3.org/2000/svg">
<rect y="0.357178" width="24" height="24" rx="5" fill="#EBDFF9" fill-opacity="0.3"/>
<path d="M10.2548 17.4284C9.98974 17.4286 9.73544 17.3236 9.54779 17.1364L5.30579 12.8934C5.21021 12.8012 5.13396 12.6909 5.08146 12.5689C5.02897 12.447 5.00129 12.3158 5.00004 12.183C4.9988 12.0502 5.02401 11.9185 5.0742 11.7956C5.12439 11.6727 5.19857 11.561 5.29239 11.467C5.38622 11.373 5.49782 11.2987 5.62068 11.2483C5.74354 11.198 5.8752 11.1726 6.00797 11.1736C6.14075 11.1747 6.27199 11.2022 6.39403 11.2545C6.51607 11.3068 6.62647 11.3829 6.71879 11.4784L10.2538 15.0134L16.6188 8.65038C16.8063 8.46274 17.0607 8.35727 17.3259 8.35718C17.5912 8.35708 17.8456 8.46237 18.0333 8.64988C18.2209 8.83739 18.3264 9.09176 18.3265 9.35703C18.3266 9.6223 18.2213 9.87674 18.0338 10.0644L10.9618 17.1364C10.7741 17.3236 10.5198 17.4286 10.2548 17.4284Z" fill="#5A00CD"/>
</svg>
