<svg width="111" height="110" viewBox="0 0 111 110" fill="none" xmlns="http://www.w3.org/2000/svg">
<g clip-path="url(#clip0_418_119522)">
<path d="M40.6756 40.601C41.3736 40.2055 42.2002 40.1035 42.9734 40.3174C43.7467 40.5313 44.4032 41.0437 44.7987 41.7417L57.2256 63.6741C57.4893 64.1395 57.927 64.481 58.4425 64.6236C58.958 64.7662 59.509 64.6982 59.9744 64.4346C60.4397 64.1709 60.7813 63.7332 60.9239 63.2177C61.0665 62.7022 60.9985 62.1512 60.7348 61.6858L55.6985 52.797L55.9923 52.612C57.0809 51.9396 58.2117 51.3174 58.9095 51.0843C59.4334 50.9126 60.1321 50.8366 60.8435 50.8322C61.1972 50.8265 61.6621 51.0498 61.9942 51.6359L65.9986 58.7034C66.2623 59.1687 66.7 59.5103 67.2155 59.6529C67.731 59.7955 68.282 59.7275 68.7474 59.4638C69.2127 59.2001 69.5543 58.7624 69.6969 58.2469C69.8395 57.7314 69.7715 57.1804 69.5078 56.7151L66.3961 51.2232L66.7482 50.9773C67.8094 50.2648 68.7777 49.7811 69.3122 49.71C69.8178 49.6368 70.7766 49.8399 71.8727 50.2526C72.3478 50.4284 72.7768 50.6211 73.0895 50.7638L75.7658 55.4872C76.0294 55.9525 76.4671 56.2941 76.9826 56.4367C77.4981 56.5793 78.0492 56.5113 78.5145 56.2476C78.9798 55.984 79.3214 55.5463 79.464 55.0308C79.6066 54.5153 79.5386 53.9642 79.2749 53.4989L77.2866 49.9897L78.4868 49.3097C78.9772 49.0318 79.5204 48.8598 80.0814 48.8048C80.6424 48.7498 81.2087 48.813 81.7438 48.9903C82.2789 49.1676 82.7708 49.4551 83.188 49.8342C83.6051 50.2133 83.9381 50.6757 84.1656 51.1914L88.6128 61.2577C89.1837 62.5517 89.4761 63.9513 89.4708 65.3656L89.4309 76.7088C89.4297 77.0642 89.3345 77.4131 89.1551 77.7199C88.9756 78.0267 88.7182 78.2807 88.409 78.456L66.2941 90.9863C65.9685 91.1708 65.598 91.261 65.2241 91.2469C64.8501 91.2328 64.4875 91.115 64.1767 90.9065L54.9522 84.706L37.8161 75.0146C37.3744 74.7633 37.0398 74.3593 36.8751 73.8786C36.7103 73.3979 36.7267 72.8735 36.9213 72.4041C37.1158 71.9347 37.4751 71.5524 37.9316 71.3292C38.3881 71.106 38.9104 71.0571 39.4004 71.1918L52.6493 74.8571C53.0338 74.964 53.4413 74.9544 53.8203 74.8296C54.1994 74.7048 54.5328 74.4703 54.7785 74.1559C55.0242 73.8415 55.1711 73.4613 55.2007 73.0633C55.2302 72.6654 55.141 72.2676 54.9443 71.9204L39.535 44.7241C39.1395 44.0261 39.0374 43.1996 39.2514 42.4263C39.4653 41.6531 39.9776 40.9965 40.6756 40.601ZM53.7082 49.2843L48.3079 39.7534C47.3851 38.1247 45.8531 36.9292 44.0488 36.4301C42.2446 35.931 40.316 36.169 38.6873 37.0918C37.0586 38.0147 35.8632 39.5467 35.364 41.3509C34.8649 43.1551 35.1029 45.0837 36.0258 46.7124L49.0352 69.6731L40.4756 67.3051C39.0383 66.9117 37.5069 67.0564 36.1687 67.712C34.8305 68.3676 33.7776 69.4889 33.2074 70.8657C32.6373 72.2425 32.5893 73.78 33.0722 75.1897C33.5552 76.5994 34.5361 77.7844 35.8307 78.5223L52.8295 88.1431L61.9247 94.2547C62.8575 94.8813 63.9464 95.2357 65.0694 95.2783C66.1923 95.3208 67.3049 95.0498 68.2824 94.4955L90.3973 81.9652C91.3249 81.4392 92.0971 80.6774 92.6355 79.7568C93.1739 78.8363 93.4594 77.7899 93.4631 76.7235L93.505 65.3839C93.5124 63.4016 93.1023 61.44 92.3013 59.6268L87.854 49.5605C87.3988 48.5295 86.7326 47.6054 85.8983 46.8477C85.0641 46.09 84.0803 45.5155 83.0104 45.1612C81.9406 44.807 80.8083 44.6809 79.6867 44.791C78.5651 44.9011 77.479 45.245 76.4985 45.8005L74.4596 46.9557C74.0722 46.7828 73.6796 46.6219 73.2822 46.4732C72.1567 46.0493 70.3632 45.494 68.7705 45.7103C67.2029 45.9217 65.5393 46.9292 64.4921 47.6337L64.0528 47.9383C63.1373 47.1936 61.9912 46.7908 60.8112 46.7989C59.74 46.7907 58.6738 46.9447 57.6487 47.2556C56.4376 47.6544 54.9401 48.5214 53.8726 49.1819L53.7082 49.2843Z" fill="#FF6334" stroke="#FF6334"/>
<path fill-rule="evenodd" clip-rule="evenodd" d="M39.2669 15.557C40.7074 15.4109 41.9936 16.4602 42.1398 17.9007L43.0897 27.2638C43.2358 28.7043 42.1865 29.9905 40.746 30.1367C39.3055 30.2828 38.0192 29.2335 37.8731 27.793L36.9232 18.4299C36.7771 16.9894 37.8264 15.7032 39.2669 15.557ZM58.4337 21.3134C59.5556 22.2286 59.7232 23.8801 58.8079 25.002L52.8556 32.2985C51.9403 33.4204 50.2889 33.5879 49.1669 32.6727C48.045 31.7574 47.8774 30.1059 48.7927 28.984L54.745 21.6876C55.6603 20.5657 57.3118 20.3981 58.4337 21.3134ZM21.6466 25.0454C22.5619 23.9235 24.2134 23.756 25.3353 24.6712L32.6317 30.6235C33.7536 31.5388 33.9212 33.1903 33.0059 34.3122C32.0907 35.4341 30.4392 35.6017 29.3173 34.6864L22.0208 28.7341C20.8989 27.8188 20.7314 26.1674 21.6466 25.0454ZM67.9221 38.9336C68.0683 40.3741 67.019 41.6604 65.5785 41.8065L56.2154 42.7564C54.7749 42.9025 53.4886 41.8532 53.3425 40.4127C53.1964 38.9722 54.2457 37.686 55.6862 37.5398L65.0492 36.59C66.4897 36.4438 67.776 37.4931 67.9221 38.9336ZM30.4699 42.7332C30.616 44.1737 29.5668 45.4599 28.1262 45.6061L18.7632 46.5559C17.3227 46.7021 16.0364 45.6528 15.8903 44.2123C15.7442 42.7718 16.7935 41.4855 18.234 41.3394L27.597 40.3895C29.0375 40.2434 30.3238 41.2927 30.4699 42.7332ZM34.6455 50.4732C35.7674 51.3885 35.9349 53.0399 35.0197 54.1619L29.0674 61.4583C28.1521 62.5802 26.5006 62.7477 25.3787 61.8325C24.2568 60.9172 24.0892 59.2658 25.0045 58.1438L30.9568 50.8474C31.8721 49.7255 33.5235 49.5579 34.6455 50.4732Z" fill="#FF6334" stroke="#FF6334" stroke-linecap="round" stroke-linejoin="round"/>
</g>
<defs>
<clipPath id="clip0_418_119522">
<rect width="80.6667" height="80.6667" fill="white" transform="translate(15.0002 14.667)"/>
</clipPath>
</defs>
</svg>
