<svg width="126" height="33" viewBox="0 0 126 33" fill="none" xmlns="http://www.w3.org/2000/svg">
<mask id="mask0_5041_94381" style="mask-type:alpha" maskUnits="userSpaceOnUse" x="0" y="0" width="29" height="33">
<path fill-rule="evenodd" clip-rule="evenodd" d="M14.4253 0.0528585C14.3032 -0.0176197 14.1528 -0.0176194 14.0308 0.0528587L0.45899 7.88852C0.336918 7.959 0.261719 8.08925 0.261719 8.2302V23.9015C0.261719 24.0425 0.336919 24.1727 0.45899 24.2432L14.0308 32.0789C14.1528 32.1494 14.3032 32.1494 14.4253 32.0789L27.9971 24.2432C28.1191 24.1727 28.1943 24.0425 28.1943 23.9015V8.2302C28.1943 8.08925 28.1191 7.959 27.9971 7.88852L14.4253 0.0528585ZM13.2341 15.8455V11.4805H15.3895C16.2207 11.4805 16.8405 11.6641 17.2491 12.0314C17.6576 12.3846 17.8619 12.9284 17.8619 13.663C17.8619 14.3975 17.6576 14.9484 17.2491 15.3157C16.8405 15.6689 16.2207 15.8455 15.3895 15.8455H13.2341ZM13.2341 18.8967V24.1092H9.8109V8.42924H12.3889H13.2341H16.1502C17.2209 8.42924 18.1507 8.6482 18.9396 9.0861C19.7425 9.52402 20.3624 10.1385 20.7991 10.9296C21.2499 11.7065 21.4753 12.6176 21.4753 13.663C21.4753 14.7083 21.2499 15.6265 20.7991 16.4176C20.3624 17.1945 19.7425 17.8019 18.9396 18.2398C18.1507 18.6777 17.2209 18.8967 16.1502 18.8967H13.2341Z" fill="#5A00CD"/>
</mask>
<g mask="url(#mask0_5041_94381)">
<path d="M14.0308 0.0528587C14.1528 -0.0176194 14.3032 -0.0176197 14.4253 0.0528585L27.9971 7.88852C28.1191 7.959 28.1943 8.08925 28.1943 8.2302V23.9015C28.1943 24.0425 28.1191 24.1727 27.9971 24.2432L14.4253 32.0789C14.3032 32.1494 14.1528 32.1494 14.0308 32.0789L0.45899 24.2432C0.336919 24.1727 0.261719 24.0425 0.261719 23.9015V8.2302C0.261719 8.08925 0.336918 7.959 0.45899 7.88852L14.0308 0.0528587Z" fill="#5A00CD"/>
<path d="M1.82959 13.2161L23.1096 19.6001L19.7496 4.7041L1.82959 13.2161Z" fill="white" fill-opacity="0.13"/>
<path d="M26.1336 25.312L23.1096 19.6L28.2616 12.208V24.192L26.1336 25.312Z" fill="white" fill-opacity="0.11"/>
<path d="M23.1096 19.6001L17.6216 30.2401L26.1336 25.3121L23.1096 19.6001Z" fill="white" fill-opacity="0.2"/>
<path d="M19.7497 4.70418L21.3177 4.03218L14.2617 -0.111816L13.7017 0.224184L19.7497 4.70418Z" fill="white" fill-opacity="0.5"/>
<path d="M23.1098 19.6002L19.7498 4.70423L21.3178 4.03223L28.2618 7.99177V12.2082L23.1098 19.6002Z" fill="white" fill-opacity="0.33"/>
<path d="M12.1337 26.2083L23.1097 19.6003L1.82972 13.2163L0.261719 13.6643V24.1923L2.38972 25.3123L12.1337 26.2083Z" fill="white" fill-opacity="0.24"/>
<path d="M2.27772 25.3123L12.1337 26.2083L1.82972 13.2163L0.261719 13.6643V24.1923L2.27772 25.3123Z" fill="white" fill-opacity="0.13"/>
<path d="M17.0618 30.5761L12.1338 26.2081L23.1098 19.6001L17.6218 30.2401L17.0618 30.5761Z" fill="white" fill-opacity="0.16"/>
<path d="M10.4538 30.016L12.1338 26.208L2.27783 25.312L10.4538 30.016Z" fill="white" fill-opacity="0.41"/>
<path d="M14.2619 32.256L17.0619 30.576L12.1339 26.208L10.4539 30.016L14.2619 32.256Z" fill="white" fill-opacity="0.1"/>
<path d="M19.7496 4.70412L13.7016 0.224121L5.74959 4.81612L1.82959 13.2161L19.7496 4.70412Z" fill="white" fill-opacity="0.3"/>
<path d="M0.261719 7.95241L5.74972 4.81641L1.82972 13.2164L0.261719 13.6644V7.95241Z" fill="white" fill-opacity="0.52"/>
</g>
<line x1="35.5863" y1="5.98584" x2="35.5863" y2="26.1458" stroke="url(#paint0_linear_5041_94381)" stroke-opacity="0.9" stroke-width="0.448"/>
<path d="M42.4918 22.0659V10.7763H47.2818C47.9592 10.7763 48.5667 10.9376 49.1043 11.2602C49.6419 11.572 50.0666 12.002 50.3784 12.5504C50.701 13.088 50.8623 13.7009 50.8623 14.389C50.8623 15.0879 50.701 15.7222 50.3784 16.2921C50.0666 16.8512 49.6419 17.2974 49.1043 17.6307C48.5667 17.9533 47.9592 18.1146 47.2818 18.1146H44.911V22.0659H42.4918ZM44.8788 15.9211H47.0238C47.2711 15.9211 47.4969 15.8566 47.7012 15.7276C47.9055 15.5986 48.0721 15.4212 48.2011 15.1954C48.3302 14.9696 48.3947 14.7115 48.3947 14.4212C48.3947 14.1309 48.3302 13.8783 48.2011 13.6632C48.0721 13.4482 47.9055 13.2762 47.7012 13.1471C47.4969 13.0181 47.2711 12.9536 47.0238 12.9536H44.8788V15.9211ZM52.2222 22.0659V13.5342H54.4317L54.5124 16.276L54.1253 15.6954C54.2651 15.2653 54.4747 14.8728 54.7543 14.518C55.0446 14.1632 55.3833 13.8836 55.7703 13.6794C56.1682 13.4643 56.5821 13.3568 57.0122 13.3568C57.2057 13.3568 57.3831 13.3729 57.5444 13.4052C57.7165 13.4267 57.8616 13.4643 57.9799 13.5181L57.367 16.0179C57.2487 15.9642 57.0928 15.9158 56.8993 15.8728C56.7165 15.819 56.5284 15.7921 56.3348 15.7921C56.0875 15.7921 55.851 15.8405 55.6252 15.9373C55.4102 16.0233 55.2166 16.1523 55.0446 16.3243C54.8833 16.4856 54.7543 16.6792 54.6575 16.905C54.5715 17.1307 54.5285 17.3834 54.5285 17.663V22.0659H52.2222ZM62.3992 22.2272C61.5283 22.2272 60.7541 22.039 60.0768 21.6627C59.3994 21.2756 58.8618 20.7488 58.464 20.0822C58.0769 19.4155 57.8834 18.6575 57.8834 17.8081C57.8834 16.948 58.0769 16.1846 58.464 15.5179C58.8618 14.8406 59.3994 14.3137 60.0768 13.9374C60.7541 13.5503 61.5283 13.3568 62.3992 13.3568C63.2701 13.3568 64.0443 13.5503 64.7216 13.9374C65.399 14.3137 65.9312 14.8406 66.3183 15.5179C66.7161 16.1846 66.915 16.948 66.915 17.8081C66.915 18.6575 66.7161 19.4155 66.3183 20.0822C65.9312 20.7488 65.399 21.2756 64.7216 21.6627C64.0443 22.039 63.2701 22.2272 62.3992 22.2272ZM62.3992 20.2435C62.8185 20.2435 63.1949 20.1359 63.5282 19.9209C63.8615 19.7059 64.1195 19.4155 64.3023 19.05C64.4958 18.6844 64.5872 18.2705 64.5765 17.8081C64.5872 17.3243 64.4958 16.8996 64.3023 16.534C64.1195 16.1577 63.8615 15.8674 63.5282 15.6631C63.1949 15.4481 62.8185 15.3405 62.3992 15.3405C61.9799 15.3405 61.5982 15.4481 61.2541 15.6631C60.9208 15.8781 60.6574 16.1684 60.4638 16.534C60.2811 16.8996 60.195 17.3243 60.2058 17.8081C60.195 18.2705 60.2811 18.6844 60.4638 19.05C60.6574 19.4155 60.9208 19.7059 61.2541 19.9209C61.5982 20.1359 61.9799 20.2435 62.3992 20.2435ZM71.5089 22.2272C70.767 22.2272 70.095 22.039 69.4929 21.6627C68.9015 21.2864 68.4338 20.7649 68.0897 20.0983C67.7564 19.4209 67.5898 18.6575 67.5898 17.8081C67.5898 16.948 67.7564 16.1846 68.0897 15.5179C68.4338 14.8513 68.9015 14.3245 69.4929 13.9374C70.0842 13.5503 70.7562 13.3568 71.5089 13.3568C71.9067 13.3568 72.2884 13.4213 72.654 13.5503C73.0303 13.6686 73.3636 13.8353 73.6539 14.0503C73.9442 14.2653 74.1807 14.5073 74.3635 14.7761C74.5463 15.0341 74.6538 15.3029 74.6861 15.5825L74.1055 15.6954V10.1312H76.3795V22.0659H74.2184L74.1216 20.0983L74.5732 20.1628C74.5624 20.4209 74.4711 20.6735 74.299 20.9208C74.127 21.1681 73.8958 21.3939 73.6055 21.5982C73.326 21.7917 73.0034 21.9476 72.6378 22.0659C72.283 22.1734 71.9067 22.2272 71.5089 22.2272ZM72.0088 20.3241C72.4497 20.3241 72.826 20.2166 73.1378 20.0015C73.4604 19.7865 73.713 19.4908 73.8958 19.1145C74.0786 18.7382 74.17 18.3027 74.17 17.8081C74.17 17.3028 74.0786 16.8619 73.8958 16.4856C73.713 16.0986 73.4604 15.8029 73.1378 15.5986C72.826 15.3835 72.4497 15.276 72.0088 15.276C71.5895 15.276 71.2186 15.3835 70.896 15.5986C70.5735 15.8029 70.3208 16.0986 70.138 16.4856C69.966 16.8619 69.8799 17.3028 69.8799 17.8081C69.8799 18.3027 69.966 18.7382 70.138 19.1145C70.3208 19.4908 70.5735 19.7865 70.896 20.0015C71.2186 20.2166 71.5895 20.3241 72.0088 20.3241ZM81.3 22.2272C80.6871 22.2272 80.1549 22.0928 79.7033 21.824C79.2517 21.5444 78.9023 21.152 78.655 20.6467C78.4184 20.1306 78.3002 19.5177 78.3002 18.8081V13.5342H80.5903V18.3887C80.5903 18.9908 80.7301 19.4639 81.0097 19.808C81.3 20.1413 81.6978 20.308 82.2031 20.308C82.4612 20.308 82.6923 20.2703 82.8966 20.1951C83.1117 20.1091 83.2945 19.9908 83.445 19.8403C83.5955 19.6897 83.7138 19.5123 83.7998 19.308C83.8858 19.1037 83.9288 18.8779 83.9288 18.6307V13.5342H86.219V22.0659H84.0417L83.9772 20.308L84.3804 20.1144C84.2621 20.5123 84.0471 20.8724 83.7353 21.195C83.4342 21.5176 83.074 21.7702 82.6547 21.953C82.2354 22.1358 81.7838 22.2272 81.3 22.2272ZM91.749 22.2272C90.9319 22.2272 90.2007 22.0337 89.5556 21.6466C88.9105 21.2595 88.3998 20.7327 88.0234 20.066C87.6579 19.3887 87.4751 18.636 87.4751 17.8081C87.4751 16.9587 87.6579 16.2007 88.0234 15.5341C88.3998 14.8567 88.9105 14.3245 89.5556 13.9374C90.2007 13.5503 90.9319 13.3568 91.749 13.3568C92.5124 13.3568 93.2059 13.5019 93.8295 13.7923C94.4639 14.0718 94.9585 14.4589 95.3133 14.9535L94.0714 16.4695C93.9209 16.2652 93.7328 16.0771 93.507 15.905C93.2812 15.733 93.0339 15.5986 92.7651 15.5018C92.507 15.4051 92.2382 15.3567 91.9587 15.3567C91.5178 15.3567 91.1254 15.4642 90.7813 15.6792C90.4373 15.8835 90.1685 16.1738 89.9749 16.5501C89.7814 16.9157 89.6846 17.3297 89.6846 17.792C89.6846 18.2436 89.7868 18.6522 89.9911 19.0177C90.1953 19.3833 90.4695 19.6736 90.8136 19.8886C91.1577 20.1037 91.5393 20.2112 91.9587 20.2112C92.2382 20.2112 92.5017 20.1736 92.7489 20.0983C93.007 20.0123 93.2435 19.8886 93.4586 19.7274C93.6736 19.5661 93.8779 19.3779 94.0714 19.1629L95.3133 20.6789C94.9585 21.1412 94.4531 21.5176 93.7973 21.8079C93.1522 22.0874 92.4694 22.2272 91.749 22.2272ZM97.1195 22.0659V11.3731H99.4097V22.0659H97.1195ZM95.5228 15.5825V13.5342H101.168V15.5825H95.5228Z" fill="#110733"/>
<path d="M109.612 22.0659V10.7763H112.031V22.0659H109.612ZM102.483 22.0659V10.7763H104.902V22.0659H102.483ZM103.467 17.5501V15.3244H110.837V17.5501H103.467ZM122.44 23.8561L118.134 18.0984L119.956 16.8243L124.214 22.5336L122.44 23.8561ZM119.005 22.2272C118.177 22.2272 117.408 22.082 116.698 21.7917C116 21.5014 115.392 21.0982 114.876 20.5821C114.371 20.0553 113.973 19.4371 113.682 18.7274C113.403 18.0178 113.263 17.2383 113.263 16.3889C113.263 15.5502 113.403 14.7761 113.682 14.0664C113.973 13.3568 114.371 12.7386 114.876 12.2117C115.392 11.6849 116 11.2763 116.698 10.986C117.408 10.6957 118.177 10.5505 119.005 10.5505C119.833 10.5505 120.591 10.6957 121.279 10.986C121.978 11.2763 122.585 11.6849 123.101 12.2117C123.617 12.7386 124.015 13.3622 124.295 14.0826C124.585 14.7922 124.73 15.561 124.73 16.3889C124.73 17.2275 124.585 18.0017 124.295 18.7113C124.015 19.4209 123.617 20.0392 123.101 20.566C122.585 21.0929 121.978 21.5014 121.279 21.7917C120.591 22.082 119.833 22.2272 119.005 22.2272ZM119.005 19.937C119.478 19.937 119.913 19.851 120.311 19.679C120.709 19.4962 121.053 19.2489 121.343 18.9371C121.644 18.6145 121.875 18.2382 122.037 17.8081C122.198 17.378 122.279 16.905 122.279 16.3889C122.279 15.8835 122.198 15.4158 122.037 14.9857C121.875 14.5556 121.644 14.1793 121.343 13.8568C121.053 13.5342 120.709 13.2869 120.311 13.1149C119.913 12.9321 119.478 12.8407 119.005 12.8407C118.532 12.8407 118.091 12.9321 117.682 13.1149C117.284 13.2869 116.935 13.5342 116.634 13.8568C116.344 14.1686 116.118 14.5449 115.957 14.9857C115.795 15.4158 115.715 15.8889 115.715 16.405C115.715 17.0824 115.854 17.6899 116.134 18.2275C116.424 18.7543 116.811 19.1736 117.295 19.4854C117.79 19.7865 118.36 19.937 119.005 19.937Z" fill="#5A00CD"/>
<defs>
<linearGradient id="paint0_linear_5041_94381" x1="34.3623" y1="5.9386" x2="34.3623" y2="26.0986" gradientUnits="userSpaceOnUse">
<stop stop-color="#120733" stop-opacity="0"/>
<stop offset="0.505208" stop-color="#120733"/>
<stop offset="1" stop-color="#120733" stop-opacity="0"/>
</linearGradient>
</defs>
</svg>
