<svg width="28" height="28" viewBox="0 0 28 28" fill="none" xmlns="http://www.w3.org/2000/svg">
<g clip-path="url(#clip0_106_2226)">
<path fill-rule="evenodd" clip-rule="evenodd" d="M20.125 2.18059C21.581 0.684337 25.2227 3.30409 20.125 6.67109C15.0273 3.30409 18.669 0.684337 20.125 2.18059ZM15.75 8.75009C15.75 10.1425 15.1969 11.4778 14.2123 12.4624C13.2277 13.447 11.8924 14.0001 10.5 14.0001C9.10761 14.0001 7.77226 13.447 6.78769 12.4624C5.80312 11.4778 5.25 10.1425 5.25 8.75009C5.25 7.3577 5.80312 6.02234 6.78769 5.03778C7.77226 4.05321 9.10761 3.50009 10.5 3.50009C11.8924 3.50009 13.2277 4.05321 14.2123 5.03778C15.1969 6.02234 15.75 7.3577 15.75 8.75009ZM0 22.7501C0 24.5001 1.75 24.5001 1.75 24.5001H19.25C19.25 24.5001 21 24.5001 21 22.7501C21 21.0001 19.25 15.7501 10.5 15.7501C1.75 15.7501 0 21.0001 0 22.7501ZM23.625 8.59259C26.0522 6.09884 32.1213 10.4651 23.625 16.0773C15.1305 10.4651 21.1978 6.09884 23.625 8.59434V8.59259ZM26.25 3.78884C27.2213 2.79134 29.6485 4.53784 26.25 6.78309C22.8515 4.53784 25.2787 2.79134 26.25 3.79059V3.78884Z" fill="#5A00CD"/>
</g>
<defs>
<clipPath id="clip0_106_2226">
<rect width="28" height="28" fill="white"/>
</clipPath>
</defs>
</svg>
