<svg width="22" height="25" viewBox="0 0 22 25" fill="none" xmlns="http://www.w3.org/2000/svg">
  <path
    d="M2.359 1.12584C2.22236 1.04483 2.06671 1.00142 1.90786 1.00003C1.74901 0.998647 1.59263 1.03933 1.45459 1.11794C1.31655 1.19656 1.20179 1.31031 1.12194 1.44764C1.0421 1.58497 1.00003 1.74099 1 1.89984V22.7408C1.00003 22.8997 1.0421 23.0557 1.12194 23.193C1.20179 23.3304 1.31655 23.4441 1.45459 23.5227C1.59263 23.6014 1.74901 23.642 1.90786 23.6407C2.06671 23.6393 2.22236 23.5959 2.359 23.5148L19.9435 13.0943C20.0778 13.0147 20.1891 12.9014 20.2663 12.7657C20.3436 12.63 20.3842 12.4765 20.3842 12.3203C20.3842 12.1642 20.3436 12.0107 20.2663 11.875C20.1891 11.7393 20.0778 11.626 19.9435 11.5463L2.359 1.12584Z"
    fill="#5A00CD" stroke="#5A00CD" stroke-width="1.5" stroke-linecap="round"
    stroke-linejoin="round" />
</svg>