<svg width="94" height="18" viewBox="0 0 94 18" fill="none" xmlns="http://www.w3.org/2000/svg">
<g filter="url(#filter0_i_527_884)">
<path d="M8.54152 1.05364C8.71587 0.652972 9.28413 0.652972 9.45848 1.05364L11.3319 5.35893C11.4043 5.5255 11.5615 5.63966 11.7423 5.65712L16.4158 6.1084C16.8507 6.1504 17.0263 6.69085 16.6991 6.98048L13.1834 10.0926C13.0474 10.213 12.9874 10.3977 13.0267 10.5751L14.0417 15.1593C14.1361 15.5859 13.6764 15.9199 13.2998 15.6982L9.25365 13.3163C9.09711 13.2242 8.90289 13.2242 8.74635 13.3163L4.70016 15.6982C4.32361 15.9199 3.86387 15.5859 3.95833 15.1593L4.97332 10.5751C5.01259 10.3977 4.95257 10.213 4.81655 10.0926L1.30089 6.98048C0.973704 6.69085 1.14931 6.1504 1.58424 6.1084L6.25772 5.65712C6.43854 5.63966 6.59566 5.5255 6.66814 5.35893L8.54152 1.05364Z" fill="#F7B200"/>
</g>
<g filter="url(#filter1_i_527_884)">
<path d="M27.5415 1.05364C27.7159 0.652972 28.2841 0.652972 28.4585 1.05364L30.3319 5.35893C30.4043 5.5255 30.5615 5.63966 30.7423 5.65712L35.4158 6.1084C35.8507 6.1504 36.0263 6.69085 35.6991 6.98048L32.1834 10.0926C32.0474 10.213 31.9874 10.3977 32.0267 10.5751L33.0417 15.1593C33.1361 15.5859 32.6764 15.9199 32.2998 15.6982L28.2537 13.3163C28.0971 13.2242 27.9029 13.2242 27.7463 13.3163L23.7002 15.6982C23.3236 15.9199 22.8639 15.5859 22.9583 15.1593L23.9733 10.5751C24.0126 10.3977 23.9526 10.213 23.8166 10.0926L20.3009 6.98048C19.9737 6.69085 20.1493 6.1504 20.5842 6.1084L25.2577 5.65712C25.4385 5.63966 25.5957 5.5255 25.6681 5.35893L27.5415 1.05364Z" fill="#F7B200"/>
</g>
<g filter="url(#filter2_i_527_884)">
<path d="M46.5415 1.05364C46.7159 0.652972 47.2841 0.652972 47.4585 1.05364L49.3319 5.35893C49.4043 5.5255 49.5615 5.63966 49.7423 5.65712L54.4158 6.1084C54.8507 6.1504 55.0263 6.69085 54.6991 6.98048L51.1834 10.0926C51.0474 10.213 50.9874 10.3977 51.0267 10.5751L52.0417 15.1593C52.1361 15.5859 51.6764 15.9199 51.2998 15.6982L47.2537 13.3163C47.0971 13.2242 46.9029 13.2242 46.7463 13.3163L42.7002 15.6982C42.3236 15.9199 41.8639 15.5859 41.9583 15.1593L42.9733 10.5751C43.0126 10.3977 42.9526 10.213 42.8166 10.0926L39.3009 6.98048C38.9737 6.69085 39.1493 6.1504 39.5842 6.1084L44.2577 5.65712C44.4385 5.63966 44.5957 5.5255 44.6681 5.35893L46.5415 1.05364Z" fill="#F7B200"/>
</g>
<g filter="url(#filter3_i_527_884)">
<path d="M65.5415 1.05364C65.7159 0.652972 66.2841 0.652972 66.4585 1.05364L68.3319 5.35893C68.4043 5.5255 68.5615 5.63966 68.7423 5.65712L73.4158 6.1084C73.8507 6.1504 74.0263 6.69085 73.6991 6.98048L70.1834 10.0926C70.0474 10.213 69.9874 10.3977 70.0267 10.5751L71.0417 15.1593C71.1361 15.5859 70.6764 15.9199 70.2998 15.6982L66.2537 13.3163C66.0971 13.2242 65.9029 13.2242 65.7463 13.3163L61.7002 15.6982C61.3236 15.9199 60.8639 15.5859 60.9583 15.1593L61.9733 10.5751C62.0126 10.3977 61.9526 10.213 61.8166 10.0926L58.3009 6.98048C57.9737 6.69085 58.1493 6.1504 58.5842 6.1084L63.2577 5.65712C63.4385 5.63966 63.5957 5.5255 63.6681 5.35893L65.5415 1.05364Z" fill="#F7B200"/>
</g>
<g filter="url(#filter4_i_527_884)">
<path d="M84.5415 1.05364C84.7159 0.652972 85.2841 0.652972 85.4585 1.05364L87.3319 5.35893C87.4043 5.5255 87.5615 5.63966 87.7423 5.65712L92.4158 6.1084C92.8507 6.1504 93.0263 6.69085 92.6991 6.98048L89.1834 10.0926C89.0474 10.213 88.9874 10.3977 89.0267 10.5751L90.0417 15.1593C90.1361 15.5859 89.6764 15.9199 89.2998 15.6982L85.2537 13.3163C85.0971 13.2242 84.9029 13.2242 84.7463 13.3163L80.7002 15.6982C80.3236 15.9199 79.8639 15.5859 79.9583 15.1593L80.9733 10.5751C81.0126 10.3977 80.9526 10.213 80.8166 10.0926L77.3009 6.98048C76.9737 6.69085 77.1493 6.1504 77.5842 6.1084L82.2577 5.65712C82.4385 5.63966 82.5957 5.5255 82.6681 5.35893L84.5415 1.05364Z" fill="#F7B200"/>
</g>
<defs>
<filter id="filter0_i_527_884" x="1.13184" y="0.753174" width="15.7363" height="19.0156" filterUnits="userSpaceOnUse" color-interpolation-filters="sRGB">
<feFlood flood-opacity="0" result="BackgroundImageFix"/>
<feBlend mode="normal" in="SourceGraphic" in2="BackgroundImageFix" result="shape"/>
<feColorMatrix in="SourceAlpha" type="matrix" values="0 0 0 0 0 0 0 0 0 0 0 0 0 0 0 0 0 0 127 0" result="hardAlpha"/>
<feOffset dy="4"/>
<feGaussianBlur stdDeviation="3"/>
<feComposite in2="hardAlpha" operator="arithmetic" k2="-1" k3="1"/>
<feColorMatrix type="matrix" values="0 0 0 0 1 0 0 0 0 1 0 0 0 0 1 0 0 0 0.5 0"/>
<feBlend mode="normal" in2="shape" result="effect1_innerShadow_527_884"/>
</filter>
<filter id="filter1_i_527_884" x="20.1318" y="0.753174" width="15.7363" height="19.0156" filterUnits="userSpaceOnUse" color-interpolation-filters="sRGB">
<feFlood flood-opacity="0" result="BackgroundImageFix"/>
<feBlend mode="normal" in="SourceGraphic" in2="BackgroundImageFix" result="shape"/>
<feColorMatrix in="SourceAlpha" type="matrix" values="0 0 0 0 0 0 0 0 0 0 0 0 0 0 0 0 0 0 127 0" result="hardAlpha"/>
<feOffset dy="4"/>
<feGaussianBlur stdDeviation="3"/>
<feComposite in2="hardAlpha" operator="arithmetic" k2="-1" k3="1"/>
<feColorMatrix type="matrix" values="0 0 0 0 1 0 0 0 0 1 0 0 0 0 1 0 0 0 0.5 0"/>
<feBlend mode="normal" in2="shape" result="effect1_innerShadow_527_884"/>
</filter>
<filter id="filter2_i_527_884" x="39.1318" y="0.753174" width="15.7363" height="19.0156" filterUnits="userSpaceOnUse" color-interpolation-filters="sRGB">
<feFlood flood-opacity="0" result="BackgroundImageFix"/>
<feBlend mode="normal" in="SourceGraphic" in2="BackgroundImageFix" result="shape"/>
<feColorMatrix in="SourceAlpha" type="matrix" values="0 0 0 0 0 0 0 0 0 0 0 0 0 0 0 0 0 0 127 0" result="hardAlpha"/>
<feOffset dy="4"/>
<feGaussianBlur stdDeviation="3"/>
<feComposite in2="hardAlpha" operator="arithmetic" k2="-1" k3="1"/>
<feColorMatrix type="matrix" values="0 0 0 0 1 0 0 0 0 1 0 0 0 0 1 0 0 0 0.5 0"/>
<feBlend mode="normal" in2="shape" result="effect1_innerShadow_527_884"/>
</filter>
<filter id="filter3_i_527_884" x="58.1318" y="0.753174" width="15.7363" height="19.0156" filterUnits="userSpaceOnUse" color-interpolation-filters="sRGB">
<feFlood flood-opacity="0" result="BackgroundImageFix"/>
<feBlend mode="normal" in="SourceGraphic" in2="BackgroundImageFix" result="shape"/>
<feColorMatrix in="SourceAlpha" type="matrix" values="0 0 0 0 0 0 0 0 0 0 0 0 0 0 0 0 0 0 127 0" result="hardAlpha"/>
<feOffset dy="4"/>
<feGaussianBlur stdDeviation="3"/>
<feComposite in2="hardAlpha" operator="arithmetic" k2="-1" k3="1"/>
<feColorMatrix type="matrix" values="0 0 0 0 1 0 0 0 0 1 0 0 0 0 1 0 0 0 0.5 0"/>
<feBlend mode="normal" in2="shape" result="effect1_innerShadow_527_884"/>
</filter>
<filter id="filter4_i_527_884" x="77.1318" y="0.753174" width="15.7363" height="19.0156" filterUnits="userSpaceOnUse" color-interpolation-filters="sRGB">
<feFlood flood-opacity="0" result="BackgroundImageFix"/>
<feBlend mode="normal" in="SourceGraphic" in2="BackgroundImageFix" result="shape"/>
<feColorMatrix in="SourceAlpha" type="matrix" values="0 0 0 0 0 0 0 0 0 0 0 0 0 0 0 0 0 0 127 0" result="hardAlpha"/>
<feOffset dy="4"/>
<feGaussianBlur stdDeviation="3"/>
<feComposite in2="hardAlpha" operator="arithmetic" k2="-1" k3="1"/>
<feColorMatrix type="matrix" values="0 0 0 0 1 0 0 0 0 1 0 0 0 0 1 0 0 0 0.5 0"/>
<feBlend mode="normal" in2="shape" result="effect1_innerShadow_527_884"/>
</filter>
</defs>
</svg>
