<svg width="108" height="16" viewBox="0 0 108 16" fill="none" xmlns="http://www.w3.org/2000/svg">
<path d="M8 0L10.6286 4.38208L15.6085 5.52786L12.2531 9.38192L12.7023 14.4721L8 12.472L3.29772 14.4721L3.74688 9.38192L0.391548 5.52786L5.37142 4.38208L8 0Z" fill="#FEBA45"/>
<path d="M31 0L33.6286 4.38208L38.6085 5.52786L35.2531 9.38192L35.7023 14.4721L31 12.472L26.2977 14.4721L26.7469 9.38192L23.3915 5.52786L28.3714 4.38208L31 0Z" fill="#FDA13F"/>
<path d="M54 0L56.6286 4.38208L61.6085 5.52786L58.2531 9.38192L58.7023 14.4721L54 12.472L49.2977 14.4721L49.7469 9.38192L46.3915 5.52786L51.3714 4.38208L54 0Z" fill="#FD8B3B"/>
<path d="M77 0L79.6286 4.38208L84.6085 5.52786L81.2531 9.38192L81.7023 14.4721L77 12.472L72.2977 14.4721L72.7469 9.38192L69.3915 5.52786L74.3714 4.38208L77 0Z" fill="#FC7236"/>
<path d="M100 0L102.629 4.38208L107.608 5.52786L104.253 9.38192L104.702 14.4721L100 12.472L95.2977 14.4721L95.7469 9.38192L92.3915 5.52786L97.3714 4.38208L100 0Z" fill="#FC5C32"/>
</svg>
