<svg width="34" height="35" viewBox="0 0 34 35" fill="none" xmlns="http://www.w3.org/2000/svg">
<path d="M7.99967 7.66683C7.55765 7.66683 7.13372 7.49123 6.82116 7.17867C6.5086 6.86611 6.33301 6.44219 6.33301 6.00016C6.33301 5.55814 6.5086 5.13421 6.82116 4.82165C7.13372 4.50909 7.55765 4.3335 7.99967 4.3335C8.4417 4.3335 8.86562 4.50909 9.17819 4.82165C9.49075 5.13421 9.66634 5.55814 9.66634 6.00016C9.66634 6.21903 9.62323 6.43576 9.53947 6.63797C9.45572 6.84018 9.33295 7.02391 9.17819 7.17867C9.02342 7.33344 8.83969 7.4562 8.63748 7.53996C8.43527 7.62372 8.21854 7.66683 7.99967 7.66683ZM7.99967 1.3335C6.762 1.3335 5.57501 1.82516 4.69984 2.70033C3.82467 3.5755 3.33301 4.76249 3.33301 6.00016C3.33301 9.50016 7.99967 14.6668 7.99967 14.6668C7.99967 14.6668 12.6663 9.50016 12.6663 6.00016C12.6663 4.76249 12.1747 3.5755 11.2995 2.70033C10.4243 1.82516 9.23735 1.3335 7.99967 1.3335Z" fill="#5A00CD"/>
<path d="M25.9997 17.6668C25.5576 17.6668 25.1337 17.4912 24.8212 17.1787C24.5086 16.8661 24.333 16.4422 24.333 16.0002C24.333 15.5581 24.5086 15.1342 24.8212 14.8217C25.1337 14.5091 25.5576 14.3335 25.9997 14.3335C26.4417 14.3335 26.8656 14.5091 27.1782 14.8217C27.4907 15.1342 27.6663 15.5581 27.6663 16.0002C27.6663 16.219 27.6232 16.4358 27.5395 16.638C27.4557 16.8402 27.3329 17.0239 27.1782 17.1787C27.0234 17.3334 26.8397 17.4562 26.6375 17.54C26.4353 17.6237 26.2185 17.6668 25.9997 17.6668ZM25.9997 11.3335C24.762 11.3335 23.575 11.8252 22.6998 12.7003C21.8247 13.5755 21.333 14.7625 21.333 16.0002C21.333 19.5002 25.9997 24.6668 25.9997 24.6668C25.9997 24.6668 30.6663 19.5002 30.6663 16.0002C30.6663 14.7625 30.1747 13.5755 29.2995 12.7003C28.4243 11.8252 27.2374 11.3335 25.9997 11.3335Z" fill="#5A00CD"/>
<path d="M8.00033 27.7082C7.61355 27.7082 7.24262 27.5545 6.96913 27.281C6.69564 27.0075 6.54199 26.6366 6.54199 26.2498C6.54199 25.8631 6.69564 25.4921 6.96913 25.2186C7.24262 24.9451 7.61355 24.7915 8.00033 24.7915C8.3871 24.7915 8.75803 24.9451 9.03152 25.2186C9.30501 25.4921 9.45866 25.8631 9.45866 26.2498C9.45866 26.4413 9.42094 26.631 9.34765 26.8079C9.27436 26.9849 9.16694 27.1456 9.03152 27.281C8.8961 27.4165 8.73534 27.5239 8.55841 27.5972C8.38147 27.6705 8.19184 27.7082 8.00033 27.7082ZM8.00033 22.1665C6.91736 22.1665 5.87875 22.5967 5.11297 23.3625C4.3472 24.1283 3.91699 25.1669 3.91699 26.2498C3.91699 29.3123 8.00033 33.8332 8.00033 33.8332C8.00033 33.8332 12.0837 29.3123 12.0837 26.2498C12.0837 25.1669 11.6535 24.1283 10.8877 23.3625C10.1219 22.5967 9.08329 22.1665 8.00033 22.1665Z" fill="#5A00CD"/>
<path d="M6 10L23.7384 17.7321C24.4802 18.0555 24.5507 19.0801 23.8602 19.5021L7.5 29.5" stroke="#5A00CD" stroke-width="1.5" stroke-linecap="round" stroke-dasharray="2 2"/>
</svg>
