<svg width="111" height="110" viewBox="0 0 111 110" fill="none" xmlns="http://www.w3.org/2000/svg">
<g clip-path="url(#clip0_418_119538)">
<path d="M56.8115 57.1838L56.812 57.1853C57.7184 59.9037 59.2455 62.3735 61.2722 64.3992C63.2987 66.4245 65.769 67.9501 68.4873 68.855C68.4877 68.8551 68.4881 68.8553 68.4885 68.8554L71.9227 69.9995L68.4829 71.145L68.4814 71.1455C65.7631 72.0518 63.2932 73.5789 61.2676 75.6056C59.2419 77.6324 57.7162 80.1031 56.8113 82.8219L55.6672 86.2561L54.5218 82.8164L54.5215 82.8154C53.6157 80.0977 52.0896 77.6283 50.064 75.6027C48.0385 73.5771 45.569 72.051 42.8514 71.1453L42.8504 71.145L39.4122 70.0001L42.8504 68.8552L42.8514 68.8549C45.569 67.9492 48.0385 66.4231 50.064 64.3975C52.0896 62.3719 53.6157 59.9025 54.5215 57.1848L54.5218 57.1838L55.6667 53.7456L56.8115 57.1838ZM33.4352 32.7686C34.3276 31.8762 35.0789 30.8584 35.667 29.7505C36.8535 31.9844 38.6824 33.8133 40.9162 34.9998C39.8084 35.5879 38.7905 36.3391 37.8981 37.2315C37.0059 38.1238 36.2547 39.1414 35.6667 40.249C35.0786 39.1414 34.3275 38.1238 33.4352 37.2315C32.543 36.3393 31.5253 35.5882 30.4177 35.0001C31.5253 34.412 32.543 33.6609 33.4352 32.7686ZM34.6367 20.7401L35.6667 21.0811L35.6696 21.0821L36.952 21.5068L36.9537 21.5118L35.6685 21.0837L35.6667 21.0831L35.6655 21.0827L35.6637 21.0821L34.6367 20.7401ZM69.5351 25.0027C69.9435 24.6567 70.3228 24.2777 70.6692 23.8696C71.0148 24.2768 71.3932 24.6551 71.8007 25.0006C71.597 25.1733 71.4002 25.3545 71.2106 25.5441C71.0209 25.7338 70.8395 25.9308 70.6667 26.1347C70.4938 25.9308 70.3124 25.7338 70.1227 25.5441C69.9339 25.3553 69.7379 25.1747 69.5351 25.0027Z" stroke="#FF6334" stroke-width="8"/>
</g>
<defs>
<clipPath id="clip0_418_119538">
<rect width="80" height="80" fill="white" transform="translate(15.6666 15)"/>
</clipPath>
</defs>
</svg>
