<svg width="28" height="35" viewBox="0 0 28 35" fill="none" xmlns="http://www.w3.org/2000/svg">
<path d="M26.249 12.2456C26.2505 11.6709 26.1379 11.1016 25.9179 10.5707C25.6978 10.0397 25.3747 9.5577 24.9671 9.1525L17.0921 1.2775C16.269 0.461944 15.1572 0.00439453 13.9985 0.00439453C12.8398 0.00439453 11.728 0.461944 10.905 1.2775L3.02997 9.1525C2.41825 9.76441 2.0017 10.544 1.833 11.3926C1.66429 12.2412 1.751 13.1208 2.08217 13.9201C2.41333 14.7195 2.97408 15.4027 3.69351 15.8834C4.41293 16.364 5.25873 16.6206 6.12397 16.6206C6.79512 16.6114 7.45613 16.4555 8.06071 16.1639C8.66529 15.8724 9.19883 15.4522 9.62397 14.9328V23.6206C9.62397 24.7809 10.0849 25.8937 10.9054 26.7142C11.7258 27.5347 12.8386 27.9956 13.999 27.9956C15.1593 27.9956 16.2721 27.5347 17.0926 26.7142C17.913 25.8937 18.374 24.7809 18.374 23.6206V14.9328C19.9717 16.9369 23.1646 17.2266 24.9675 15.3396C25.3751 14.9343 25.6983 14.4521 25.9182 13.921C26.1382 13.3899 26.2506 12.8205 26.249 12.2456ZM3.49984 12.2456C3.49928 11.901 3.56678 11.5596 3.69846 11.2412C3.83015 10.9227 4.02343 10.6333 4.26722 10.3898L12.1422 2.51475C12.6361 2.02549 13.3031 1.751 13.9983 1.751C14.6935 1.751 15.3605 2.02549 15.8544 2.51475L23.7294 10.3898C24.2151 10.8834 24.486 11.5489 24.4832 12.2414C24.4804 12.9339 24.204 13.5972 23.7143 14.0869C23.2247 14.5765 22.5614 14.8529 21.8689 14.8557C21.1764 14.8585 20.5109 14.5876 20.0172 14.1019L18.1172 12.2019C17.9938 12.0822 17.8381 12.0013 17.6693 11.9691C17.5004 11.9369 17.3259 11.9547 17.1671 12.0205C17.0083 12.0863 16.8723 12.1971 16.7757 12.3392C16.6791 12.4814 16.6262 12.6487 16.6235 12.8205V23.6206C16.6235 24.3168 16.347 24.9845 15.8547 25.4768C15.3624 25.9691 14.6947 26.2456 13.9985 26.2456C13.3023 26.2456 12.6347 25.9691 12.1424 25.4768C11.6501 24.9845 11.3735 24.3168 11.3735 23.6206V12.8205C11.3709 12.6487 11.318 12.4814 11.2214 12.3392C11.1248 12.1971 10.9887 12.0863 10.8299 12.0205C10.6712 11.9547 10.4966 11.9369 10.3278 11.9691C10.159 12.0013 10.0033 12.0822 9.8799 12.2019C8.92878 13.0375 7.58259 15.015 6.12353 14.8706C5.42905 14.8655 4.7645 14.5872 4.27354 14.096C3.78258 13.6048 3.50465 12.9401 3.49984 12.2456Z" fill="#5A00CD"/>
<path d="M10 29L13.5528 30.7764C13.8343 30.9172 14.1657 30.9172 14.4472 30.7764L18 29" stroke="#5A00CD" stroke-width="1.5" stroke-linecap="round"/>
<path d="M10 32L13.5528 33.7764C13.8343 33.9172 14.1657 33.9172 14.4472 33.7764L18 32" stroke="#5A00CD" stroke-width="1.5" stroke-linecap="round"/>
</svg>
